<?xml version="1.0" standalone="no"?><!DOCTYPE svg PUBLIC "-//W3C//DTD SVG 1.1//EN" "http://www.w3.org/Graphics/SVG/1.1/DTD/svg11.dtd"><svg t="1764416990352" class="icon" viewBox="0 0 1024 1024" version="1.1" xmlns="http://www.w3.org/2000/svg" p-id="30306" xmlns:xlink="http://www.w3.org/1999/xlink" width="200" height="200"><path d="M17.873525 1020.169667l-0.563149-0.307173a32.45785 32.45785 0 0 1-13.566767-43.823216C31.952245 922.693727 59.648927 870.320888 88.062345 817.794462c2.815744-5.119535 11.262976-8.90799 17.81598-10.239069 54.369458-12.594055 108.943697-24.522571 163.466741-36.707063a37.833361 37.833361 0 0 0 5.989855-2.047814v-84.113954c-0.716735-62.81669-1.279884-125.63338 8.959186-187.938116 4.658777-28.515808 10.955804-56.314881 27.491901-80.683866 19.300646-28.362222 51.195346-39.215635 80.581475-23.498664 73.874885 39.16444 148.927263 33.276975 222.955733 5.119534 45.051905-16.996855 87.032089-42.13377 130.496938-63.328643 10.239069-5.119535 13.464376-12.696446 14.385893-23.447469q8.549623-104.18253 18.174348-208.313864a18.839887 18.839887 0 0 1 7.730497-13.515571C838.944489 64.813308 931.761652 23.345078 978.912566 2.713353a32.099482 32.099482 0 0 1 42.082575 16.075339 32.406654 32.406654 0 0 1-16.075339 42.9017q-38.754877 17.662394-77.253777 35.120008c-24.778548 11.211781-49.5059 22.525952-74.540425 33.123389A19.095864 19.095864 0 0 0 839.610029 148.466504c-5.119535 64.045378-11.365367 127.988366-16.17773 192.136135-1.075102 14.539478-5.119535 24.42018-17.81598 32.918608C728.15776 425.842891 646.040424 466.850363 552.404136 481.236256c-64.454941 9.778311-126.40131 2.354986-188.501265-30.25645-5.119535 18.174348-10.904609 34.608054-13.873939 51.604909-13.259595 75.564331-10.239069 151.794202-7.525716 227.921682 1.126298 29.539715 3.63487 59.07943 5.631488 89.643051l-152.25496 34.249687c-15.921753 3.583674-31.689919 8.242451-47.765258 10.648632a24.727352 24.727352 0 0 0-19.659013 15.358604c-21.911608 41.826598-44.027998 83.602001-66.55395 126.452506a32.611436 32.611436 0 0 1-44.027998 13.31079z" p-id="30307"></path></svg>