<?xml version="1.0" standalone="no"?><!DOCTYPE svg PUBLIC "-//W3C//DTD SVG 1.1//EN" "http://www.w3.org/Graphics/SVG/1.1/DTD/svg11.dtd"><svg t="1764391450407" class="icon" viewBox="0 0 1024 1024" version="1.1" xmlns="http://www.w3.org/2000/svg" p-id="19236" xmlns:xlink="http://www.w3.org/1999/xlink" width="200" height="200"><path d="M854.36 1023.377H169.64c-59.45 0-108.125-45.314-108.125-100.667V335.338c0-28.557 23.437-50.354 54.083-50.354h180.195c30.606 0 54.041-21.838 54.041-50.354V66.81c0-28.517 25.24-50.355 54.043-50.355H854.36c59.45 0 108.125 45.315 108.125 100.71V922.71c0 55.352-48.675 100.666-108.125 100.666zM737.221 385.652H448.945c-14.423 0-27.042 11.758-27.042 25.198 0 13.398 12.618 25.157 27.042 25.157H737.22c14.422 0 27.042-11.758 27.042-25.157 0-13.44-12.619-25.198-27.042-25.198z m0 167.82H286.778c-14.422 0-27.041 11.759-27.041 25.198 0 13.397 12.619 25.157 27.04 25.157h450.444c14.422 0 27.042-11.759 27.042-25.157 0-13.44-12.619-25.198-27.042-25.198z m0 167.82H286.778c-14.422 0-27.041 11.76-27.041 25.198s12.619 25.156 27.04 25.156h450.444c14.422 0 27.042-11.717 27.042-25.156 0-13.438-12.619-25.198-27.042-25.198zM239.906 236.31h-138.73c-19.83 0-25.24-11.758-12.619-25.156l180.194-172.86c14.422-13.44 25.24-8.4 25.24 10.037v137.623c-0.002 28.517-23.438 50.356-54.085 50.356z" fill="#E0620D" p-id="19237"></path></svg>