<?xml version="1.0" standalone="no"?><!DOCTYPE svg PUBLIC "-//W3C//DTD SVG 1.1//EN" "http://www.w3.org/Graphics/SVG/1.1/DTD/svg11.dtd"><svg t="1764416014690" class="icon" viewBox="0 0 1088 1024" version="1.1" xmlns="http://www.w3.org/2000/svg" p-id="22177" xmlns:xlink="http://www.w3.org/1999/xlink" width="212.5" height="200"><path d="M660.608 416h256c35.392 0 64 28.48 64 64V896c0 35.392-28.48 64-64 64h-416c-35.392 0-64-28.48-64-64v-256h128c53.312 0 96-42.944 96-96v-128z m-576-288c0-35.328 28.48-64 64-64h416c35.392 0 64 28.48 64 64v416c0 35.392-28.48 64-64 64h-416c-35.328 0-64-28.48-64-64V128z m128 276.224h46.72V379.52h67.392v118.272h49.472V379.52h68.8v20.608h50.88v-156.8h-119.68v-34.368c0-10.048 1.408-18.752 4.224-26.112a10.56 10.56 0 0 0 1.28-4.16c0-0.832-3.2-1.728-9.6-2.688h-46.784v67.392H212.608v160.832z m46.72-122.368h67.392v60.544H259.328v-60.544z m185.664 60.544H376.192v-60.48h68.8v60.48z m203.84 488l19.264-53.632h100.352l19.264 53.632h55.04L753.28 576h-64.64l-92.032 254.4h52.224z m33.024-96.32l37.12-108.608h1.344l34.368 108.608h-72.832zM916.608 320h-64a128 128 0 0 0-128-128V128a192 192 0 0 1 192 192z m-768 384h64a128 128 0 0 0 128 128v64a192 192 0 0 1-192-192z" p-id="22178"></path></svg>