<?xml version="1.0" standalone="no"?><!DOCTYPE svg PUBLIC "-//W3C//DTD SVG 1.1//EN" "http://www.w3.org/Graphics/SVG/1.1/DTD/svg11.dtd"><svg height="214" node-id="1" sillyvg="true" template-height="214" template-width="233" version="1.1" viewBox="0 0 233 214" width="233" xmlns="http://www.w3.org/2000/svg" xmlns:xlink="http://www.w3.org/1999/xlink"><defs node-id="54"></defs><g node-id="56"><g node-id="57"><path d="M 4.10 209.70 L 60.10 209.70" fill="none" group-id="1,2" id="Shape" node-id="9" stroke="#000000" stroke-linecap="round" stroke-opacity="0.1" stroke-width="7" target-height="0" target-width="56.000004" target-x="4.104" target-y="209.704"></path></g><g node-id="58"><path d="M 189.44 202.29 L 228.77 202.29" fill="none" group-id="1,3" id="Shape" node-id="10" stroke="#000000" stroke-linecap="round" stroke-opacity="0.1" stroke-width="7" target-height="0" target-width="39.333008" target-x="189.437" target-y="202.291"></path></g><path d="M 17.31 181.79 C 17.26 181.66 17.22 181.53 17.21 181.41 C 17.21 181.39 17.22 181.38 17.22 181.36 C 17.21 181.26 17.23 181.15 17.27 181.06 C 17.28 181.04 17.28 181.03 17.29 181.01 C 17.33 180.92 17.40 180.83 17.49 180.74 C 17.51 180.72 17.52 180.71 17.54 180.69 C 17.64 180.61 17.74 180.53 17.88 180.45 C 17.88 180.45 17.88 180.45 17.88 180.45 C 18.02 180.37 18.18 180.29 18.35 180.22 C 18.39 180.20 18.42 180.19 18.45 180.17 C 18.63 180.10 18.82 180.02 19.03 179.94 C 19.04 179.94 19.04 179.94 19.05 179.94 C 22.10 178.80 28.34 177.13 32.99 168.00 C 35.00 164.07 37.49 162.37 39.92 161.91 C 44.32 159.69 52.82 158.23 61.78 158.78 C 74.62 159.55 77.70 163.57 77.47 167.37 C 77.24 171.17 72.63 176.73 59.79 175.96 C 55.26 175.68 51.03 174.72 47.46 173.42 C 47.46 173.43 47.45 173.44 47.45 173.45 C 47.31 173.63 47.16 173.82 47.01 174.01 C 46.91 174.14 46.81 174.27 46.70 174.40 C 46.56 174.58 46.41 174.76 46.25 174.94 C 46.10 175.10 45.95 175.26 45.79 175.43 C 45.64 175.58 45.50 175.74 45.34 175.90 C 45.02 176.21 44.69 176.52 44.34 176.83 C 44.21 176.94 44.07 177.05 43.94 177.16 C 43.67 177.40 43.38 177.64 43.08 177.87 C 42.92 178.00 42.76 178.12 42.60 178.24 C 42.28 178.48 41.94 178.73 41.59 178.97 C 41.44 179.08 41.30 179.18 41.14 179.29 C 40.62 179.64 40.09 179.99 39.52 180.34 C 29.45 186.49 19.34 184.90 17.61 182.36 C 17.61 182.36 17.61 182.35 17.61 182.35 C 17.49 182.18 17.41 182.03 17.35 181.89 C 17.34 181.86 17.32 181.83 17.31 181.79 Z" fill="#e67878" fill-rule="nonzero" group-id="1" id="Shape" node-id="11" stroke="none" target-height="28.254013" target-width="60.491005" target-x="17.213" target-y="158.233"></path><path d="M 57.77 159.27 C 48.18 158.69 39.25 161.45 39.06 164.56 C 38.88 167.66 46.64 168.80 56.24 169.39 C 65.83 169.97 69.29 169.32 69.48 166.22 C 69.67 163.12 67.37 159.85 57.77 159.27 Z" fill="#ff8787" fill-rule="nonzero" group-id="1" id="Shape" node-id="12" stroke="none" target-height="11.279007" target-width="30.791" target-x="38.876" target-y="158.691"></path><path d="M 31.83 188.65 C 23.84 208.01 12.07 205.90 15.91 209.70 C 18.40 212.18 30.77 211.16 41.75 201.16 C 52.73 191.17 52.75 183.87 50.39 181.27 C 48.02 178.67 38.41 172.70 31.83 188.65 Z" fill="#ff8787" fill-rule="nonzero" group-id="1" id="Shape" node-id="13" stroke="none" target-height="39.482986" target-width="40.685997" target-x="12.067" target-y="172.697"></path><path d="M 51.09 188.40 C 50.01 191.81 47.27 196.14 41.75 201.16 C 30.77 211.16 18.40 212.18 15.91 209.70 C 14.66 208.47 15.07 207.85 16.45 206.93 C 41.47 206.93 37.08 186.29 37.08 186.29 L 51.09 188.40 Z" fill="#e67878" fill-rule="nonzero" group-id="1" id="Shape" node-id="14" stroke="none" target-height="25.883026" target-width="36.429" target-x="14.658" target-y="186.29498"></path><path d="M 67.30 162.85 C 49.48 168.44 35.05 179.11 36.71 184.39 C 38.36 189.66 55.68 192.77 73.50 187.18 C 91.31 181.59 94.68 171.66 93.03 166.38 C 91.38 161.11 85.11 157.27 67.30 162.85 Z" fill="#e67878" fill-rule="nonzero" group-id="1" id="Shape" node-id="15" stroke="none" target-height="35.502" target-width="59.631996" target-x="35.052002" target-y="157.266"></path><path d="M 58.57 166.48 C 45.28 170.65 34.51 178.61 35.75 182.55 C 36.98 186.48 49.91 188.80 63.20 184.63 C 76.49 180.46 79.01 173.05 77.78 169.11 C 76.54 165.18 71.86 162.31 58.57 166.48 Z" fill="#ff8787" fill-rule="nonzero" group-id="1" id="Shape" node-id="16" stroke="none" target-height="26.492996" target-width="44.5" target-x="34.511" target-y="162.311"></path><path d="M 29.40 110.20 C 29.40 110.20 29.47 119.50 38.09 128.13 C 46.72 136.76 37.55 148.89 61.82 159.94 C 81.93 169.11 82.04 147.27 73.14 138.38 C 64.24 129.48 44.02 127.59 44.02 119.51 C 44.02 108.18 29.40 91.12 29.40 110.20 Z" fill="#e67878" fill-rule="nonzero" group-id="1" id="Shape" node-id="17" stroke="none" target-height="77.990005" target-width="52.636" target-x="29.401" target-y="91.118"></path><path d="M 77.15 144.53 C 76.19 142.22 74.83 140.06 73.14 138.38 C 64.25 129.48 44.02 127.59 44.02 119.50 C 44.02 115.58 42.27 110.96 39.97 107.40 C 35.62 109.00 33.10 111.18 34.16 113.54 C 34.16 113.54 39.46 111.68 40.89 120.27 C 42.32 128.86 64.47 140.52 67.73 151.47 C 69.27 156.65 73.60 152.28 77.15 144.53 Z" fill="#ff8787" fill-rule="nonzero" group-id="1" id="Shape" node-id="18" stroke="none" target-height="49.254013" target-width="44.055" target-x="33.099" target-y="107.399994"></path><g node-id="59"><path d="M 28.99 101.84 C 28.87 94.86 32.23 89.13 36.52 89.06 C 40.80 88.98 44.37 94.58 44.50 101.56 C 44.63 108.54 41.26 114.27 36.98 114.34 C 32.70 114.42 29.12 108.82 28.99 101.84 Z" fill="#ff8787" fill-rule="nonzero" group-id="1,4" id="Oval" node-id="19" stroke="none" target-height="25.442825" target-width="15.76112" target-x="28.8666" target-y="88.979004"></path></g><path d="M 30.46 94.13 C 30.00 95.15 29.64 96.29 29.39 97.53 C 29.38 97.78 29.39 98.04 29.40 98.30 C 29.40 98.30 30.15 105.34 35.83 103.45 C 41.50 101.55 37.17 118.38 30.42 108.82 C 31.87 112.19 34.29 114.39 36.98 114.34 C 41.26 114.27 44.63 108.54 44.50 101.56 C 44.42 96.77 42.71 92.64 40.27 90.54 C 36.02 90.41 32.24 91.54 30.46 94.13 Z" fill="#e67878" fill-rule="nonzero" group-id="1" id="Shape" node-id="20" stroke="none" target-height="27.972" target-width="15.25" target-x="29.382" target-y="90.405"></path><path d="M 182.53 155.04 C 182.53 186.03 154.28 205.08 119.43 205.08 C 81.32 205.08 77.06 177.97 56.34 155.04 C 36.53 133.13 84.59 98.93 119.43 98.93 C 154.28 98.93 182.53 124.05 182.53 155.04 Z" fill="#d8d8ed" fill-rule="nonzero" group-id="1" id="Shape" node-id="21" stroke="none" target-height="106.153" target-width="145.996" target-x="36.533" target-y="98.927"></path><path d="M 75.82 138.67 C 99.47 141.68 117.12 155.04 129.92 153.50 C 153.26 150.69 152.45 140.90 160.95 138.56 C 169.89 133.65 180.76 141.80 177.83 133.79 C 168.41 113.34 145.82 98.93 119.44 98.93 C 96.77 98.93 71.35 109.56 60.22 125.51 C 55.63 133.42 51.36 135.56 75.82 138.67 Z" fill="#e67878" fill-rule="nonzero" group-id="1" id="Shape" node-id="22" stroke="none" target-height="56.114" target-width="129.403" target-x="51.356003" target-y="98.927"></path><path d="M 86.59 127.16 C 103.59 129.07 116.28 137.55 125.48 136.57 C 142.26 134.79 141.68 128.57 147.79 127.09 C 154.21 123.97 162.03 129.15 159.92 124.06 C 153.15 111.08 136.91 101.93 117.94 101.93 C 101.65 101.93 83.37 108.68 75.38 118.81 C 72.07 123.83 69.00 125.18 86.59 127.16 Z" fill="#ff8787" fill-rule="nonzero" group-id="1" id="Shape" node-id="23" stroke="none" target-height="35.621002" target-width="93.025" target-x="69.001" target-y="101.929"></path><path d="M 201.38 110.37 C 201.38 110.37 201.31 120.68 191.75 130.23 C 182.20 139.79 192.35 153.23 165.48 165.47 C 143.20 175.62 143.08 151.44 152.93 141.58 C 162.79 131.72 185.19 129.64 185.19 120.68 C 185.19 108.14 201.38 89.23 201.38 110.37 Z" fill="#ff8787" fill-rule="nonzero" group-id="1" id="Shape" node-id="24" stroke="none" target-height="86.385994" target-width="58.302017" target-x="143.081" target-y="89.234"></path><path d="M 191.75 130.23 C 201.31 120.67 201.38 110.37 201.38 110.37 C 201.38 107.06 200.99 104.73 200.32 103.21 C 195.53 105.23 189.76 108.04 189.76 108.04 C 189.76 108.04 189.12 113.79 192.68 115.48 C 196.24 117.18 196.75 124.30 188.95 127.52 C 181.15 130.75 182.84 147.87 167.92 151.94 C 153.00 156.01 149.95 149.91 153.00 142.61 C 153.39 141.68 153.41 141.31 153.15 141.37 C 153.08 141.44 153.00 141.51 152.93 141.58 C 143.08 151.43 143.20 175.62 165.48 165.47 C 192.35 153.23 182.20 139.79 191.75 130.23 Z" fill="#e67878" fill-rule="nonzero" group-id="1" id="Shape" node-id="25" stroke="none" target-height="72.413994" target-width="58.30301" target-x="143.08" target-y="103.206"></path><g node-id="60"><path d="M 208.05 99.91 C 206.83 103.92 204.68 107.48 202.08 109.79 C 199.47 112.10 196.63 112.98 194.16 112.23 C 191.70 111.48 189.82 109.17 188.95 105.80 C 188.07 102.43 188.26 98.28 189.48 94.26 C 190.70 90.25 192.85 86.69 195.46 84.38 C 198.06 82.07 200.91 81.19 203.37 81.94 C 205.83 82.69 207.71 85.00 208.59 88.37 C 209.47 91.74 209.27 95.89 208.05 99.91 Z" fill="#ff8787" fill-rule="nonzero" group-id="1,5" id="Oval" node-id="26" stroke="none" target-height="31.783554" target-width="21.39746" target-x="188.06787" target-y="81.19359"></path></g><path d="M 208.06 99.91 C 209.48 95.24 209.45 90.67 208.25 87.27 C 199.98 89.32 191.12 94.54 191.12 94.54 C 191.12 94.54 190.95 98.29 199.50 99.10 C 208.04 99.91 191.37 116.52 188.74 104.80 C 189.46 108.55 191.35 111.37 194.17 112.23 C 199.30 113.79 205.52 108.27 208.06 99.91 Z" fill="#e67878" fill-rule="nonzero" group-id="1" id="Shape" node-id="27" stroke="none" target-height="29.245995" target-width="20.742996" target-x="188.735" target-y="87.273"></path><path d="M 209.97 54.66 C 209.68 56.18 208.63 57.27 207.63 57.08 C 206.62 56.89 206.66 55.75 206.94 54.23 C 207.23 52.70 207.65 51.38 208.66 51.57 C 209.66 51.76 210.25 53.14 209.97 54.66 Z" fill="#ffffff" fill-rule="nonzero" group-id="1" id="Shape" node-id="28" stroke="none" target-height="5.887001" target-width="3.6309967" target-x="206.619" target-y="51.378"></path><path d="M 211.96 31.15 C 212.88 35.13 211.49 38.84 208.85 39.45 C 206.22 40.06 205.12 37.26 204.20 33.28 C 203.28 29.30 202.90 25.65 205.53 25.04 C 208.16 24.44 211.04 27.17 211.96 31.15 Z" fill="#ffffff" fill-rule="nonzero" group-id="1" id="Shape" node-id="29" stroke="none" target-height="15.624001" target-width="9.981995" target-x="202.897" target-y="24.436"></path><path d="M 60.90 38.04 C 60.90 38.04 71.93 64.46 51.27 68.96 C 30.62 73.46 25.31 95.03 43.38 96.49 C 61.46 97.94 81.95 67.98 71.64 47.41 C 61.33 26.83 59.86 36.40 60.90 38.04 Z" fill="#ff8787" fill-rule="nonzero" group-id="1" id="Shape" node-id="30" stroke="none" target-height="71.11" target-width="56.637997" target-x="25.313" target-y="26.834"></path><path d="M 71.64 47.41 C 68.90 41.94 66.79 38.62 65.18 36.69 C 84.48 64.99 54.06 89.67 54.06 81.08 C 54.06 72.51 50.93 69.11 50.91 69.05 C 50.90 69.05 50.90 69.05 50.90 69.05 C 46.34 78.45 40.79 87.35 36.89 94.63 C 38.57 95.61 40.72 96.27 43.39 96.49 C 61.46 97.94 81.95 67.98 71.64 47.41 Z" fill="#e67878" fill-rule="nonzero" group-id="1" id="Shape" node-id="31" stroke="none" target-height="61.253" target-width="47.586998" target-x="36.892" target-y="36.691"></path><path d="M 67.06 25.24 C 67.06 25.24 33.53 13.35 14.44 50.65 C -4.65 87.95 43.52 120.28 50.90 82.26 C 54.72 62.59 41.64 49.77 52.94 34.80 C 61.23 23.81 66.31 28.56 67.06 25.24 Z" fill="#e67878" fill-rule="nonzero" group-id="1" id="Shape" node-id="32" stroke="none" target-height="106.933" target-width="71.701996" target-x="-4.6450005" target-y="13.348"></path><path d="M 59.73 26.11 C 59.73 26.11 33.58 18.34 18.69 47.43 C 3.81 76.52 41.37 101.74 47.13 72.08 C 50.11 56.74 39.90 46.75 48.72 35.06 C 55.19 26.50 59.15 28.71 59.73 26.11 Z" fill="#ff8787" fill-rule="nonzero" group-id="1" id="Shape" node-id="33" stroke="none" target-height="83.401" target-width="55.924004" target-x="3.806" target-y="18.336"></path><path d="M 223.53 173.94 C 223.59 173.81 223.62 173.68 223.63 173.56 C 223.63 173.54 223.63 173.53 223.63 173.51 C 223.63 173.40 223.61 173.30 223.57 173.21 C 223.57 173.19 223.56 173.18 223.56 173.16 C 223.51 173.07 223.44 172.97 223.35 172.89 C 223.34 172.87 223.32 172.86 223.30 172.84 C 223.21 172.76 223.10 172.68 222.97 172.60 C 222.97 172.60 222.96 172.60 222.96 172.60 C 222.82 172.52 222.66 172.44 222.49 172.37 C 222.46 172.35 222.42 172.34 222.39 172.32 C 222.21 172.25 222.02 172.17 221.81 172.09 C 221.81 172.09 221.80 172.09 221.79 172.08 C 218.74 170.95 212.51 169.28 207.85 160.15 C 205.85 156.22 203.35 154.52 200.92 154.06 C 196.52 151.84 188.02 150.38 179.06 150.93 C 166.23 151.70 163.14 155.72 163.37 159.52 C 163.60 163.32 168.21 168.88 181.05 168.10 C 185.59 167.83 189.82 166.87 193.38 165.57 C 193.39 165.58 193.39 165.59 193.40 165.60 C 193.53 165.78 193.68 165.97 193.83 166.16 C 193.93 166.29 194.03 166.42 194.14 166.55 C 194.29 166.73 194.44 166.91 194.60 167.08 C 194.74 167.25 194.90 167.41 195.06 167.57 C 195.20 167.73 195.35 167.89 195.50 168.04 C 195.82 168.35 196.15 168.67 196.51 168.98 C 196.63 169.09 196.77 169.20 196.90 169.31 C 197.18 169.55 197.46 169.78 197.77 170.02 C 197.92 170.15 198.08 170.27 198.25 170.39 C 198.57 170.63 198.91 170.88 199.26 171.12 C 199.40 171.22 199.55 171.33 199.70 171.43 C 200.22 171.78 200.75 172.13 201.33 172.49 C 211.39 178.63 221.51 177.05 223.23 174.51 C 223.23 174.50 223.23 174.50 223.24 174.50 C 223.35 174.33 223.43 174.18 223.49 174.04 C 223.50 174.01 223.52 173.98 223.53 173.94 Z" fill="#e67878" fill-rule="nonzero" group-id="1" id="Shape" node-id="34" stroke="none" target-height="28.253998" target-width="60.492004" target-x="163.138" target-y="150.381"></path><path d="M 171.37 158.37 C 171.55 161.48 175.01 162.12 184.61 161.54 C 194.21 160.95 201.97 159.81 201.78 156.71 C 201.59 153.60 192.67 150.84 183.07 151.42 C 173.47 152.00 171.17 155.27 171.37 158.37 Z" fill="#ff8787" fill-rule="nonzero" group-id="1" id="Shape" node-id="35" stroke="none" target-height="11.278" target-width="30.791016" target-x="171.174" target-y="150.842"></path><path d="M 190.46 173.42 C 188.09 176.02 188.11 183.32 199.09 193.31 C 210.07 203.31 222.44 204.33 224.94 201.85 C 228.78 198.05 217.00 200.16 209.01 180.80 C 202.43 164.85 192.82 170.82 190.46 173.42 Z" fill="#ff8787" fill-rule="nonzero" group-id="1" id="Shape" node-id="36" stroke="none" target-height="39.481995" target-width="40.685974" target-x="188.09102" target-y="164.848"></path><path d="M 203.76 178.44 C 203.76 178.44 199.37 199.07 224.39 199.08 C 225.78 200.00 226.18 200.62 224.94 201.85 C 222.44 204.33 210.07 203.31 199.09 193.31 C 193.57 188.29 190.83 183.96 189.75 180.55 L 203.76 178.44 Z" fill="#e67878" fill-rule="nonzero" group-id="1" id="Shape" node-id="37" stroke="none" target-height="25.88301" target-width="36.430008" target-x="189.75398" target-y="178.443"></path><path d="M 147.81 158.53 C 146.16 163.81 149.54 173.74 167.35 179.33 C 185.16 184.92 202.48 181.81 204.14 176.54 C 205.79 171.26 191.36 160.59 173.54 155.00 C 155.73 149.41 149.47 153.26 147.81 158.53 Z" fill="#e67878" fill-rule="nonzero" group-id="1" id="Shape" node-id="38" stroke="none" target-height="35.503006" target-width="59.63002" target-x="146.159" target-y="149.415"></path><path d="M 163.07 161.27 C 161.83 165.20 164.35 172.62 177.64 176.79 C 190.94 180.96 203.86 178.64 205.10 174.70 C 206.33 170.76 195.56 162.80 182.27 158.63 C 168.98 154.46 164.30 157.33 163.07 161.27 Z" fill="#ff8787" fill-rule="nonzero" group-id="1" id="Shape" node-id="39" stroke="none" target-height="26.495987" target-width="44.499023" target-x="161.831" target-y="154.46"></path><path d="M 168.31 18.24 C 168.31 18.24 153.24 50.75 178.86 57.37 C 204.47 63.98 210.07 91.22 187.40 92.17 C 164.73 93.12 140.54 54.67 154.42 29.44 C 168.31 4.21 169.69 16.24 168.31 18.24 Z" fill="#ff8787" fill-rule="nonzero" group-id="1" id="Shape" node-id="40" stroke="none" target-height="88.919" target-width="69.528" target-x="140.54" target-y="4.205"></path><path d="M 176.45 56.63 C 158.86 72.97 182.53 86.82 167.03 73.15 C 140.87 50.09 164.16 15.18 164.17 15.18 C 161.97 17.19 158.82 21.44 154.43 29.44 C 140.54 54.67 164.73 93.12 187.40 92.17 C 191.03 92.02 193.92 91.19 196.13 89.88 C 196.31 80.42 191.75 68.34 188.73 61.43 C 186.95 60.38 178.56 57.42 176.45 56.63 Z" fill="#e67878" fill-rule="nonzero" group-id="1" id="Shape" node-id="41" stroke="none" target-height="77.949" target-width="55.772003" target-x="140.54" target-y="15.175"></path><path d="M 161.22 1.93 C 161.22 1.93 203.73 -11.32 225.80 36.25 C 247.87 83.81 186.08 121.92 178.68 74.02 C 174.85 49.24 191.83 33.84 178.42 14.57 C 168.58 0.43 161.99 6.12 161.22 1.93 Z" fill="#e67878" fill-rule="nonzero" group-id="1" id="Shape" node-id="42" stroke="none" target-height="133.241" target-width="86.64899" target-x="161.224" target-y="-11.319"></path><path d="M 167.33 1.44 C 167.33 1.44 201.44 -9.20 219.16 28.98 C 236.87 67.16 187.28 97.75 181.34 59.30 C 178.27 39.41 191.90 27.05 181.13 11.58 C 173.23 0.24 167.95 4.81 167.33 1.44 Z" fill="#ff8787" fill-rule="nonzero" group-id="1" id="Shape" node-id="43" stroke="none" target-height="106.942" target-width="69.542984" target-x="167.331" target-y="-9.196"></path><path d="M 59.94 145.99 C 59.94 145.99 59.14 150.47 70.46 163.64 C 83.77 179.12 103.89 199.55 136.40 184.69 C 136.40 184.69 144.91 183.29 139.18 177.57 C 133.45 171.84 131.75 166.12 131.75 162.40 C 131.75 158.69 111.09 163.86 100.36 156.65 C 86.74 147.51 61.17 141.04 59.94 145.99 Z" fill="#f0f0ff" fill-rule="nonzero" group-id="1" id="Shape" node-id="44" stroke="none" target-height="58.506012" target-width="85.767" target-x="59.142002" target-y="141.04"></path><path d="M 112.27 84.96 C 112.27 88.27 109.58 90.96 106.27 90.96 C 102.96 90.96 100.27 88.27 100.27 84.96 C 100.27 81.64 102.96 78.96 106.27 78.96 C 109.58 78.96 112.27 81.64 112.27 84.96 Z" fill="#6e6e96" fill-rule="nonzero" group-id="1" id="Oval" node-id="45" stroke="none" target-height="12.000008" target-width="12" target-x="100.27" target-y="78.957"></path><path d="M 137.77 84.96 C 137.77 88.27 135.08 90.96 131.77 90.96 C 128.46 90.96 125.77 88.27 125.77 84.96 C 125.77 81.64 128.46 78.96 131.77 78.96 C 135.08 78.96 137.77 81.64 137.77 84.96 Z" fill="#6e6e96" fill-rule="nonzero" group-id="1" id="Oval" node-id="46" stroke="none" target-height="12.000008" target-width="11.999992" target-x="125.77" target-y="78.957"></path><g node-id="61"><path d="M 26.51 42.36 C 26.51 42.36 19.51 48.36 19.51 61.36 C 19.51 74.36 26.15 69.75 28.44 59.29 C 33.77 34.96 26.51 42.36 26.51 42.36 Z" fill="#ffffff" fill-opacity="0.31" fill-rule="nonzero" group-id="1,6" id="Shape" node-id="47" stroke="none" target-height="39.405" target-width="14.256996" target-x="19.513" target-y="34.957"></path></g><g node-id="62"><path d="M 212.72 53.73 C 212.72 53.73 221.00 41.74 213.35 31.22 C 199.13 11.65 203.17 28.78 203.78 39.47 C 205.05 62.01 212.72 53.73 212.72 53.73 Z" fill="#ffffff" fill-opacity="0.31" fill-rule="nonzero" group-id="1,7" id="Shape" node-id="48" stroke="none" target-height="50.357" target-width="21.867004" target-x="199.129" target-y="11.653"></path></g><g node-id="63"><path d="M 181.25 164.57 C 185.29 165.99 188.23 168.09 187.81 169.27 C 187.40 170.44 183.79 170.23 179.76 168.81 C 175.72 167.39 172.78 165.28 173.20 164.11 C 173.61 162.94 177.22 163.14 181.25 164.57 Z" fill="#ffffff" fill-opacity="0.3" fill-rule="nonzero" group-id="1,8" id="Oval" node-id="49" stroke="none" target-height="7.4991455" target-width="15.444611" target-x="172.78229" target-y="162.93867"></path></g><g node-id="64"><path d="M 53.96 175.03 C 58.06 173.81 61.68 173.78 62.03 174.97 C 62.39 176.16 59.35 178.12 55.25 179.34 C 51.15 180.57 47.53 180.59 47.18 179.40 C 46.82 178.21 49.86 176.26 53.96 175.03 Z" fill="#ffffff" fill-opacity="0.3" fill-rule="nonzero" group-id="1,9" id="Oval" node-id="50" stroke="none" target-height="6.8148956" target-width="15.56282" target-x="46.823524" target-y="173.77922"></path></g><g node-id="65"><path d="M 132.77 113.50 C 132.77 117.39 124.82 117.73 115.02 117.73 C 105.22 117.73 97.27 117.39 97.27 113.50 C 97.27 109.61 105.22 106.46 115.02 106.46 C 124.82 106.46 132.77 109.61 132.77 113.50 Z" fill="#ffffff" fill-opacity="0.33" fill-rule="nonzero" group-id="1,10" id="Shape" node-id="51" stroke="none" target-height="11.270004" target-width="35.500008" target-x="97.27" target-y="106.45699"></path></g><path d="M 95.94 166.53 C 94.15 169.48 88.96 166.69 82.74 162.94 C 76.52 159.18 71.63 155.88 73.42 152.92 C 75.20 149.97 81.69 150.62 87.91 154.38 C 94.13 158.14 97.72 163.58 95.94 166.53 Z" fill="#ffffff" fill-opacity="0.84" fill-rule="nonzero" group-id="1,11" id="Shape" node-id="52" stroke="none" target-height="19.515991" target-width="26.088997" target-x="71.633" target-y="149.968"></path></g></svg>