<?xml version="1.0" standalone="no"?><!DOCTYPE svg PUBLIC "-//W3C//DTD SVG 1.1//EN" "http://www.w3.org/Graphics/SVG/1.1/DTD/svg11.dtd"><svg t="1764469938393" class="icon" viewBox="0 0 1024 1024" version="1.1" xmlns="http://www.w3.org/2000/svg" p-id="31343" xmlns:xlink="http://www.w3.org/1999/xlink" width="200" height="200"><path d="M1006.364444 439.068444a51.825778 51.825778 0 0 1-36.864 15.189334c-1.422222 0.056889-2.673778 0.796444-4.096 0.796444H56.945778a56.888889 56.888889 0 1 1 0-113.777778h778.581333l-195.185778-195.470222a51.939556 51.939556 0 0 1 0-73.329778 51.712 51.712 0 0 1 73.216 0l272.497778 273.009778a56.547556 56.547556 0 0 1 36.238222 52.679111c0 1.479111-0.739556 2.673778-0.796444 4.096a51.882667 51.882667 0 0 1-15.132445 36.807111zM17.806222 584.817778a51.370667 51.370667 0 0 1 36.750222-15.132445c1.479111-0.113778 2.730667-0.853333 4.152889-0.853333h908.458667a56.888889 56.888889 0 0 1 0 113.777778H188.643556l195.072 195.527111a51.825778 51.825778 0 0 1-73.159112 73.329778l-272.497777-273.009778a56.661333 56.661333 0 0 1-36.238223-52.736c0-1.422222 0.739556-2.673778 0.853334-4.039111a51.541333 51.541333 0 0 1 15.132444-36.864z" fill="#666666" p-id="31344"></path></svg>