<svg viewBox="0 0 500 500" xmlns="http://www.w3.org/2000/svg" id="图层_1"><defs><style>.cls-1{fill:#f3ef7b;}.cls-2{fill:none;stroke:#70181c;stroke-miterlimit:10;stroke-width:6px;}.cls-3{fill:#e69f50;}</style></defs><title>小星星</title><polygon points="363.12 379.2 264.88 335.1 173.21 391.61 184.38 283.88 102.63 213.43 207.78 190.95 248.93 90.91 302.74 184.75 409.92 193.36 338.03 273.84 363.12 379.2" class="cls-1"></polygon><polygon points="366.68 381.91 265.83 336.51 171.25 393.85 183.27 283.91 99.51 211.68 207.79 189.13 250.59 87.15 305.5 183.16 415.72 192.36 341.37 274.25 366.68 381.91" class="cls-2"></polygon><polygon points="329.3 330.32 267.26 304.22 210.58 340.53 216.24 273.46 164.19 230.78 229.72 215.43 254.23 152.74 289.08 210.32 356.27 214.26 312.28 265.2 329.3 330.32" class="cls-3"></polygon></svg>