<?xml version="1.0" standalone="no"?><!DOCTYPE svg PUBLIC "-//W3C//DTD SVG 1.1//EN" "http://www.w3.org/Graphics/SVG/1.1/DTD/svg11.dtd"><svg t="1764389523146" class="icon" viewBox="0 0 2057 1024" version="1.1" xmlns="http://www.w3.org/2000/svg" p-id="11710" xmlns:xlink="http://www.w3.org/1999/xlink" width="401.7578125" height="200"><path d="M1883.636692 199.562958c19.802278-39.824581 53.906201 14.521671 62.927239 32.123695 20.682379 40.264632 31.90367 117.053466 2.200253 155.33787-0.440051 0.440051-0.880101 0.880101-1.320152 0.880101-16.281873 19.802278-41.804809-43.344986-44.665138-53.246125-8.580987-29.483392-14.08162-59.186809-19.802278-89.330277-2.860329-13.641569-5.720658-32.563746 0.660076-45.765264z" fill="#E4AC60" p-id="11711"></path><path d="M1088.685241 307.815411c-28.383265-8.801012-53.686176-24.42281-81.18934-35.864126-37.624328-15.621797-76.568808-28.16324-114.413162-43.565012-66.887695-27.283139-132.235212-58.306708-199.562957-84.709745-67.10772-26.183012-134.655491-52.145999-201.103135-79.649162-29.043341-12.101392-59.186809-20.902405-89.110251-30.803544-25.962987-8.801012-49.505695-24.642835-75.248657-32.563746-5.280607-1.760202-11.881367 2.860329-11.441316 8.801012 7.700886 105.172099 16.721924 209.684122 29.923443 314.416171 1.320152 9.681114 1.980228 19.362227 2.640303 29.043341 17.161974 19.582253 30.583518 42.464885 47.305442 62.707213 25.082886 30.363493 50.165771 60.947011 76.348783 90.210378 33.443847 37.184278 69.968049 71.728252 105.172099 107.372352 15.181746-0.220025 30.363493-0.440051 45.54524-0.44005 97.911264 0 195.822527 1.540177 293.733791 0.44005 51.045872-0.660076 139.936098 20.022303 150.717338-47.745492 5.720658-35.864126 2.640304-73.488454 5.940683-109.572606 4.180481-45.765265 12.981493-90.210378 22.002532-134.875516 0.880101-6.160709-1.760202-11.441316-7.260836-13.201518z" fill="#E7E7EB" p-id="11712"></path><path d="M1848.652667 256.329488c-0.660076-51.485923 0.880101-103.191871-0.44005-154.677794-0.220025-5.720658-6.160709-11.441316-12.101392-9.241063-33.223822 12.101392-77.44891 7.260835-112.212909 7.260835-47.305442 0-95.050935 2.200253-142.356377 3.960456-88.450175 2.860329-179.980705 11.001266-267.550779 24.86286-124.974377 19.582253-293.733791 75.908732-311.335815 220.025311-0.440051 0.660076-0.880101 1.100127-1.100127 1.980228-5.060582 17.82205-12.981493 44.225088 7.920911 56.32648 28.823316 16.941949 90.430403 14.521671 121.894023 11.221291 123.87425-12.101392 248.408577-18.042076 372.282827-31.46362 53.466151-5.940683 106.492251-14.301645 159.738376-22.002531 55.666404-8.140937 116.83344-7.480861 171.179692-22.442582 25.082886-6.820785 14.301645-69.748024 14.08162-85.809871z" fill="#E7E7EB" p-id="11713"></path><path d="M1080.104254 505.178115c-5.500633-34.984025-12.101392-70.188074-19.142202-104.952073-9.021038-45.325214-8.801012-84.92977-47.085417-111.992884-43.785037-31.023569-103.191871-46.425341-153.797692-62.047138-59.406834-18.482126-119.913795-34.323949-180.20073-49.72572-60.947011-15.621797-122.554099-29.703417-184.381211-41.584784-56.106454-10.78124-111.992884-29.263366-168.759414-36.304176-18.922177-2.420278-30.363493-12.981493-38.064379 9.681113-12.321417 36.524202-5.500633 86.469947-8.580987 124.754352l-3.960456 48.185543c22.662607 27.503164 42.68491 56.986556 63.36729 86.029897 29.483392 41.364759 62.487188 80.089213 95.71101 118.593643 38.724455 45.105189 78.329011 89.550302 119.69377 132.455237 96.151061-3.74043 192.302122-10.121164 288.453183-13.861594 63.80734-2.640304 127.834706-5.060582 191.201996-12.981494 26.403037-3.30038 50.165771-3.960456 53.0261-33.883898 1.540177-15.621797-5.060582-37.404303-7.480861-52.366024z" fill="#D4C9C8" p-id="11714"></path><path d="M1889.797401 160.618477c-36.964252-8.580987-81.18934-1.320152-119.033694-2.200253-55.446378-1.320152-111.332808 0.660076-166.779186 1.760203-106.492251 2.420278-214.524679 16.501898-319.036702 36.084151-89.770327 16.721924-174.700097 49.72572-245.988298 107.152327-24.202784 19.582253-74.808606 92.630656-66.447644 134.65549-1.320152 4.400506 1.100127 9.681114 4.840557 12.321418 1.100127 1.760202 2.420278 3.520405 3.960455 5.060582 3.520405 3.520405 9.681114-0.660076 7.920912-5.060582 89.770327-62.047138 226.626071-61.387062 331.358119-71.288201 108.032428-10.34119 216.284881-20.682379 324.537334-27.943215 47.525467-3.080354 95.050935-5.500633 142.356377-11.881367 36.964252-5.060582 97.691238-4.180481 124.094275-35.204049 10.34119-12.541443-0.440051-138.615946-21.782505-143.456504z" fill="#D4C9C8" p-id="11715"></path><path d="M272.611361 218.70516c-19.802278-39.824581-53.906201 14.521671-62.927239 32.123695-20.682379 40.264632-31.90367 117.053466-2.200253 155.33787 0.440051 0.440051 0.880101 0.880101 1.320152 0.880101 16.281873 19.802278 41.804809-43.344986 44.665138-53.246125 8.580987-29.483392 14.08162-59.186809 19.802278-89.330277 2.860329-13.641569 5.720658-32.563746-0.660076-45.765264z" fill="#E4AC60" p-id="11716"></path><path d="M1007.715927 715.082262c-25.082886-75.028631-46.865391-150.717338-73.488454-225.085893-12.981493-36.084151-23.762734-73.268429-35.424075-109.792631-12.101392-38.284404-30.583518-74.14853-38.724455-113.53306-1.100127-5.280607-7.260835-8.140937-12.321418-7.04081-51.925974 13.201519-109.79263 8.360962-162.598705 11.001265-57.426606 2.860329-114.853213-1.320152-172.279819-3.080354-60.726986-1.760202-124.314301-13.421544-184.161186-23.102658-47.745493-7.700886-103.851947-7.04081-148.957135-24.202784-3.960456-1.540177-7.260835 1.320152-8.360962 4.620531-5.060582 3.080354-7.920911 9.241063-3.960456 15.841823 79.429137 128.934833 162.37868 253.029108 262.710222 367.002219 54.786303 62.267163 100.111517 132.455238 155.557895 193.8423 34.543974 38.284404 120.573871 32.563746 167.219237 33.883898 71.728252 1.760202 152.917591-2.640304 219.805286-30.363493 10.561215-4.400506 41.364759-12.321417 47.305442-24.202784 10.34119-21.562481-5.280607-44.445113-12.321417-65.787569zM1129.389924 715.082262c25.082886-75.028631 46.865391-150.717338 73.488454-225.085893 12.981493-36.084151 23.762734-73.268429 35.424075-109.792631 12.101392-38.284404 30.583518-74.14853 38.724455-113.53306 1.100127-5.280607 7.260835-8.140937 12.321417-7.04081 51.925974 13.201519 109.79263 8.360962 162.598706 11.001265 57.426606 2.860329 114.853213-1.320152 172.279819-3.080354 60.726986-1.760202 124.314301-13.421544 184.161185-23.102658 47.745493-7.700886 103.851947-7.04081 148.957136-24.202784 3.960456-1.540177 7.260835 1.320152 8.360962 4.620531 5.060582 3.080354 7.920911 9.241063 3.960456 15.841823-79.429137 128.934833-162.37868 253.029108-262.710222 367.002219-54.786303 62.267163-100.111517 132.455238-155.557896 193.8423-34.543974 38.284404-120.573871 32.563746-167.219236 33.883898-71.728252 1.760202-152.917591-2.640304-219.805287-30.363493-10.561215-4.400506-41.364759-12.321417-47.305441-24.202784-10.34119-21.562481 5.280607-44.445113 12.321417-65.787569z" fill="#BE0637" p-id="11717"></path><path d="M1270.646174 254.569285c-52.806075 43.565012-138.175896 63.80734-204.62354 70.628125-64.027366 6.600759-160.838503-14.741696-205.283615-64.907466-2.860329-3.080354-6.600759-2.860329-9.681114-1.320152-4.180481-4.400506-10.121164 0.880101-9.241063 5.720658 5.720658 37.184278 19.582253 72.388327 32.563746 107.592377 17.602025 48.185543 31.023569 97.691238 44.225088 146.976908 11.881367 44.445113 22.002531 89.330276 30.803543 134.435465 7.260835 38.284404 12.541443 83.389593 27.503164 119.253719 1.980228 4.620532 5.500633 7.260835 9.681114 8.360962l1.320152 0.660076c42.68491 36.744227 97.251188 37.844354 152.03749 32.563746 59.406834-5.720658 66.007593-36.964252 72.388327-88.010124 19.142202-153.577667 45.98529-308.915537 79.209113-460.292952 2.420278-12.321417-11.441316-19.582253-20.902405-11.661342z" fill="#A41430" p-id="11718"></path><path d="M845.557272 248.628602c-177.340401-20.462354-358.861283-12.981493-535.761633-38.284404-3.30038-0.440051-5.940683 4.180481-2.420279 5.940683 25.742961 12.541443 58.746758 9.901139 86.469948 12.981494 50.165771 5.500633 100.991618 8.801012 151.377414 12.541442 99.231415 7.04081 200.883109 20.242329 300.33455 18.262101 7.480861-0.440051 7.04081-10.561215 0-11.441316zM795.391501 231.246602c-75.908732-22.882632-156.878047-27.943215-235.427083-33.663872-80.529264-5.940683-167.659287-32.123695-248.188552-20.022304-1.320152 0.220025-0.880101 1.980228 0 2.420279 28.16324 11.881367 62.707214 10.121164 92.850682 12.981493 46.425341 4.400506 92.190606 12.321417 138.395921 16.721924 84.269694 8.360962 167.439262 22.002531 251.268906 31.463619 5.500633 0.440051 6.380734-8.360962 1.100126-9.901139zM601.989252 186.141414c-81.409365-31.90367-185.701363-53.906201-273.271437-51.705949-3.74043 0-4.400506 5.280607-0.880101 6.380734 46.645366 15.841822 99.01139 18.922177 147.636984 27.943215 41.144733 7.480861 83.829644 24.642835 125.414428 26.403037 5.500633 0.440051 5.720658-7.260835 1.100126-9.021037zM1894.417932 217.164982c-121.673997-5.280607-244.888172-3.74043-366.342144 0.660076-105.832175 3.74043-236.747235-10.34119-329.597916 50.385797-1.320152 0.880101-0.440051 3.080354 1.100126 2.640303 23.542708-5.940683 45.545239-16.061848 69.087948-22.002531 38.50443-9.461088 77.668935-11.221291 117.053466-13.201518 59.186809-2.860329 118.373618-3.960456 177.780452-4.400507 58.526733-0.440051 117.273491-1.320152 175.800223-1.760202 51.705948-0.440051 105.61215 7.260835 156.658022-1.760203 6.160709-1.100127 4.400506-10.34119-1.540177-10.561215z" fill="#E7E7EB" p-id="11719"></path><path d="M1843.152034 179.76068c-135.755617-11.001266-275.911741-3.74043-411.007281 12.541442-62.267163 7.700886-122.774124 13.201519-183.721136 29.703417-42.68491 11.441316-101.211643 23.982759-134.875515 55.226353-2.860329 2.640304 1.100127 8.140937 4.400506 5.500633 40.264632-30.143468 101.431669-41.804809 149.177161-54.126226 65.787568-17.161974 133.995415-19.802278 201.32316-27.72319 62.707214-7.480861 126.074503-5.280607 189.001743-11.001265 61.827113-5.500633 124.094276 4.400506 185.921388-0.440051 5.940683-0.440051 5.940683-9.021038-0.220026-9.681113z" fill="#E7E7EB" p-id="11720"></path><path d="M179.100604 375.143156c0.880101 62.047138 18.922177 91.310504 42.68491 148.737111 8.580987 20.682379 20.242329 35.6441 39.384531 46.645366 14.08162 8.140937 29.043341 10.121164 45.325214 10.561215 17.161974 0.440051 30.363493-4.180481 45.325214-12.541443 23.982759-13.861595 25.742961-39.824581 12.541443-64.247391-12.541443-23.542708-31.683645-34.763999-57.426606-32.343721 14.961721-2.640304 26.623063-18.262101 25.742961-33.663872-0.880101-16.501898-14.08162-31.023569-29.923442-35.644101-14.08162-3.960456-29.483392-1.100127-42.24486 6.380734 14.301645-13.201519 42.024834-63.147264 2.860329-88.6702-5.720658-3.74043-11.881367-5.280607-18.482126-5.280608-30.803544-0.220025-66.007593 37.404303-65.787568 60.06691" fill="#FBE4AE" p-id="11721"></path><path d="M1953.824766 384.164194c-0.880101 62.047138-18.922177 91.310504-42.68491 148.73711-8.580987 20.682379-20.242329 35.6441-39.384531 46.645367-14.08162 8.140937-29.043341 10.121164-45.325214 10.561214-17.161974 0.440051-30.363493-4.180481-45.325214-12.541442-23.982759-13.861595-25.742961-39.824581-12.541443-64.247391 12.541443-23.542708 31.683645-34.763999 57.426606-32.343721-14.961721-2.640304-26.623063-18.262101-25.742961-33.663873 0.880101-16.501898 14.08162-31.023569 29.923442-35.6441 14.08162-3.960456 29.483392-1.100127 42.24486 6.380734-14.301645-13.201519-42.024834-63.147264-2.860329-88.670201 5.720658-3.74043 11.881367-5.280607 18.482126-5.280607 31.023569-0.220025 66.227619 37.404303 65.787568 60.06691" fill="#FBE4AE" p-id="11722"></path><path d="M1405.081639 477.454926l3.740431-8.360962 23.322683-0.660076 1.980227-4.180481 11.221291-0.220025-1.980228 4.180481 24.642835-0.660076-4.180481 8.580987-58.746758 1.320152z m-14.08162 31.243594l3.520405-7.920911h22.662607l2.420279-5.280607-22.662607 0.220025 3.520405-8.140937h6.600759l3.30038-7.04081 10.78124-0.220025-3.30038 7.04081 22.662607-0.220025 3.520405-7.260836 11.221291-0.220025-3.520405 7.260835h7.04081l-4.400506 8.140937-23.762734 0.220025-2.640303 5.500633h23.762733l-3.960455 8.140937h-23.542709l-10.78124 22.662607c-1.100127 2.420278-3.30038 4.400506-6.380734 5.720658-2.200253 0.880101-4.620532 1.320152-7.04081 1.320152l-6.380734-0.220026 3.520405-7.48086h2.640304c2.420278 0 3.960456-0.880101 4.840557-2.860329l9.021037-19.362228h-22.662607z m-12.981493 29.263367l3.30038-7.480861c1.760202-0.220025 2.860329-0.880101 3.520405-1.980228l7.920911-15.181746h10.561215l-7.260835 13.861594c-1.320152 2.640304-2.420278 4.400506-3.520405 5.280608-1.980228 1.980228-4.620532 3.520405-7.920912 4.620531-1.980228 0.440051-4.180481 0.880101-6.600759 0.880102z m52.586049-24.42281h10.781241l-6.60076 15.621797c-0.660076 1.320152 0 1.980228 1.760203 2.200253l-3.74043 7.700886c-8.360962-0.660076-11.221291-4.180481-8.360962-10.561215l6.160708-14.961721z m5.280608 25.522936l3.74043-7.700886c1.980228 0 3.080354-0.660076 3.74043-1.980228l26.843088-54.126226c2.200253-4.400506 6.160709-7.700886 12.321418-10.121164 3.30038-1.320152 7.480861-1.980228 12.761468-2.200254l31.46362-0.880101-4.840557 9.021038-31.683645 0.660076c-1.760202 0-3.520405 0.440051-5.280608 1.320152-1.760202 0.880101-3.080354 2.200253-3.74043 3.520405l-4.400506 8.801012 37.624328-0.44005-4.620531 8.580987h-7.480861l-24.642835 46.42534-11.221291-0.220025 23.982759-45.98529-17.82205 0.220025-17.602025 34.764c-1.760202 3.74043-5.060582 6.380734-9.241063 8.360961-3.30038 1.320152-6.600759 2.200253-9.901139 1.980228zM1526.315586 488.016141l4.840557-8.801013c7.920911-1.100127 14.961721-3.74043 20.902404-8.140936 1.980228-1.540177 5.500633-5.060582 10.561215-10.78124l13.64157-0.440051c-6.820785 7.480861-12.981493 12.981493-17.822051 16.721924l-18.482126 32.783771h-12.541443l13.201519-23.762734c-5.280607 1.320152-9.901139 2.200253-14.301645 2.420279z m-20.022303 36.744227l4.620531-8.360962 55.006328 0.220025 4.620532-7.920911h13.201518l-4.840557 7.920911 59.62686 0.440051-5.940684 9.021038-58.966783-0.660076-9.681114 16.281873-12.761468-0.440051 9.461089-16.061847-54.346252-0.440051z m59.186808-44.225088l31.903671-4.400506 10.121164-17.161974 14.08162-0.440051-9.241063 15.401772 26.403037-3.520405c5.720658-0.880101 10.121164-1.760202 12.981493-2.860329 2.200253-0.880101 4.400506-2.420278 6.820785-4.840557l15.181747-0.440051c-3.74043 4.180481-7.700886 7.700886-11.881367 10.34119-4.180481 2.860329-11.001266 4.840557-20.242329 5.940684l-35.20405 4.840556-6.600759 10.781241c-1.100127 1.760202-1.320152 2.860329-0.660076 3.300379 0.440051 0.440051 1.540177 0.440051 2.860329 0.440051l48.845619-0.220025-5.940683 9.241063h-50.605822c-4.400506 0-7.480861-0.220025-8.801012-0.880102-3.30038-1.320152-3.74043-4.180481-1.100127-8.580987l7.260835-12.101392-31.683644 4.400506 5.500632-9.241063zM1356.456045 585.267329l1.320152-3.30038c1.320152-3.080354 3.960456-5.720658 7.700886-7.480861 3.520405-1.540177 7.920911-2.420278 13.201519-2.200253l28.383265 1.320152 2.200253-4.400506 10.34119 0.44005-2.200253 4.400507 28.823316 1.100126c6.380734 0.220025 10.561215 1.320152 12.541442 3.080355 1.100127 0.880101 1.760202 2.200253 1.980228 3.520405 0.220025 1.540177 0 2.860329-0.660076 4.180481l-2.200253 4.18048-10.78124-0.660075 1.100126-1.980228c1.540177-3.080354 0.220025-4.620532-3.960455-4.840557l-67.327746-3.30038c-3.080354-0.220025-5.280607 0-6.600759 0.440051-1.760202 0.660076-2.860329 1.540177-3.30038 2.860329l-1.100126 2.420278-9.461089 0.220026z m-12.101392 27.063113l2.860329-6.600759 49.725721 3.300379 22.222556-6.820784c2.200253-0.660076 3.520405-1.320152 3.740431-1.980228 0.440051-0.880101-0.440051-1.320152-2.640304-1.540177l-61.387062-3.740431 3.080354-6.820784 65.347518 3.520405c3.74043 0.220025 6.160709 0.660076 7.700886 1.100126 2.420278 0.880101 3.74043 2.200253 4.180481 3.960456 0.220025 0.880101 0 1.760202-0.440051 2.420278-1.320152 2.640304-5.060582 5.060582-10.78124 6.820785l-12.981494 4.180481 31.023569 1.980228-3.74043 7.04081-36.744227-2.640304-3.30038 6.820784c-1.540177 3.080354-3.960456 5.500633-7.48086 7.260836-3.960456 1.980228-8.360962 2.860329-13.64157 2.420278l-18.262101-1.540177 3.080355-6.600759 16.941949 1.320152c4.400506 0.440051 7.260835-0.880101 8.801012-3.960456l3.080355-6.380734-50.385797-3.520405zM1450.846904 625.531961l3.74043-7.04081 4.180481 0.220025 15.181747-27.723189c2.640304-4.840557 7.04081-8.360962 12.981493-10.34119 4.400506-1.540177 10.121164-1.980228 17.161974-1.760202l7.920912 0.44005 3.080354-5.280607 11.661342 0.44005-3.080355 5.280608 19.582253 0.880101 3.30038-5.280607 12.321417 0.44005-3.30038 5.500633 9.461089 0.440051c8.801012 0.440051 14.301645 1.980228 16.721923 4.620531 2.200253 2.420278 1.760202 5.940683-1.320151 10.78124l-18.702152 28.823316 6.380734 0.440051-4.840557 7.48086-9.681113-0.660075c-1.100127 2.200253-1.100127 3.960456-0.440051 4.840556 0.660076 0.880101 2.420278 1.760202 5.500633 2.200253l-4.620532 7.260836c-6.160709-0.440051-10.34119-2.200253-12.541443-4.840557-1.760202-2.200253-1.760202-5.720658 0.220026-10.121164l-71.288201-5.280608c-2.200253 2.640304-3.960456 4.620532-4.840557 5.500633-2.860329 2.640304-6.820785 4.400506-12.101392 5.280607-2.860329 0.660076-5.720658 0.660076-7.920911 0.660076h-0.660076l3.74043-6.820784c2.640304-0.220025 4.400506-0.440051 5.720658-0.880102 1.760202-0.660076 3.74043-2.200253 5.500633-4.620531l-9.021038-0.880101z m30.583518-26.623063l18.702152 1.100126 7.260835-12.541442-9.681114-0.440051c-3.520405-0.220025-6.380734 0.220025-8.360961 1.100127-1.760202 0.660076-2.860329 1.980228-3.960456 3.520405l-3.960456 7.260835z m-11.441316 20.682379l18.262101 1.320152 7.700886-13.421544-18.482126-1.100126-7.480861 13.201518zM1511.57389 600.6691l19.142202 1.100127 7.700886-12.761468-19.582253-0.880101-7.260835 12.541442z m-12.321417 20.902405l18.702151 1.320152 8.360962-13.641569-18.922177-1.100127-8.140936 13.421544z m43.344986-19.142202l20.242329 1.100126 4.840556-7.48086c2.200253-3.520405 0.660076-5.500633-5.280607-5.940684l-11.881367-0.660075-7.920911 12.981493z m-13.201519 21.342455l19.802278 1.320152 8.801013-13.861595-20.022304-1.320152-8.580987 13.861595z" fill="#FFFFFF" p-id="11723"></path><path d="M1994.749474 812.553475c-0.660076-0.440051-1.540177-0.660076-2.420278-0.880101-150.497313-15.841822-308.255461-2.860329-459.412851-2.860329-163.258781 0-326.297537 0-489.556318 0.220025-319.696778 0.660076-642.47391-11.441316-961.950662 2.200254-3.080354-0.440051-6.380734-0.440051-9.241063-0.440051-3.960456 0.220025-8.580987 0.880101-13.201519 1.760202-10.561215-0.220025-22.442582 0.440051-29.043341 9.241063-5.940683 7.920911-10.34119 16.061848-13.641569 24.42281C4.400506 869.980082 0.660076 902.103777 0.880101 922.786156c0.220025 29.043341 2.860329 61.827113 25.522936 82.289467 14.961721 13.421544 42.68491 13.201519 66.66767 11.661341 315.736322 12.981493 634.552998 1.100127 950.28932 1.760203 155.777921 0.220025 311.555841 0.220025 467.333762 0.220025 141.25625 0 287.793107 10.78124 429.709433 1.540177 20.462354 1.320152 41.584784-0.220025 60.06691-3.520405 29.923442-5.280607 40.924708-22.662607 44.445113-51.265897 3.960456-34.984025 4.400506-152.03749-50.165771-152.917592z" fill="#C69C6C" p-id="11724"></path><path d="M285.81288 547.643s46.205315-14.741696 53.906201 22.442582c7.700886 36.964252-42.904936 105.832175-73.048403 120.793896l-3.520405 35.424075s78.989087-53.686176 95.050934-125.414427c16.281873-71.508226-46.865391-79.649163-75.688707-69.087948l-25.962987 17.602025 29.263367-1.760203z" fill="#EEE9CF" p-id="11725"></path><path d="M62.487188 493.516774a112.212909 20.462354 0 1 0 224.425818 0 112.212909 20.462354 0 1 0-224.425818 0Z" fill="#C1BEB8" p-id="11726"></path><path d="M278.111994 547.643s34.323949-6.380734 47.085416 1.540178c0 0 9.681114-15.181746-1.760202-19.142203 0 0-30.143468-8.140937-45.105189 0-0.220025-0.220025-15.181746 15.181746-0.220025 17.602025zM308.695512 650.834871s15.401772 17.161974 17.602025 14.08162c0 0-39.384531 54.126227-63.36729 61.167037l-6.600759-37.624328c0.220025 0 30.583518-1.760202 52.366024-37.624329z" fill="#CFCEC3" p-id="11727"></path><path d="M158.858275 184.821262s-16.061848 36.304176-17.82205 49.285669c-0.660076 5.720658 0 76.348783 0 76.348784h33.223822v82.069441l4.620531-5.060582 3.740431-69.307974 3.960455-0.880101V310.235689h-7.700886L176.020249 234.326957S172.71987 183.50111 158.858275 184.821262z" fill="#6C728A" p-id="11728"></path><path d="M253.249134 251.488931c-1.320152 6.820785-8.140937 11.441316-14.961722 10.121164-6.820785-1.320152-11.441316-8.140937-9.901139-14.961721l5.280608-26.403037c1.320152-6.820785 8.140937-11.441316 14.961721-10.121165 6.820785 1.320152 11.441316 8.140937 9.901139 14.961722l-5.280607 26.403037z" fill="#C9CBCC" p-id="11729"></path><path d="M238.727463 243.347995c-0.440051 2.640304-2.640304 4.400506-4.840557 3.960455-2.200253-0.440051-3.520405-2.860329-3.080354-5.500633l3.300379-16.721923c0.440051-2.640304 2.640304-4.400506 4.840557-3.960456 2.200253 0.440051 3.520405 2.860329 3.080355 5.500633l-3.30038 16.721924z" fill="#F2F3F4" p-id="11730"></path><path d="M221.565489 251.488931c0.880101 0 36.964252 5.940683 36.964252 5.940683l-1.980228 8.140937h-4.400506l-1.320152 15.181746-30.583518 1.540178 3.080354-20.242329-3.080354-3.080354 1.320152-7.480861z" fill="#D3AE7F" p-id="11731"></path><path d="M214.304653 276.351791s33.883898-3.080354 37.844354 6.160709c3.74043 9.241063-37.844354 226.18602-37.844354 226.18602H178.880578l35.424075-232.346729z" fill="#465966" p-id="11732"></path><path d="M206.603768 326.077512l12.321417 46.645366-29.263366 137.515819-10.781241-1.320151z" fill="#6C8392" p-id="11733"></path><path d="M294.393867 234.326957s-3.30038-5.500633 14.741696-3.960456c0 0 10.34119 1.980228 10.561215 10.561215l-12.541443 4.180481-12.761468-10.78124z" fill="#21489C" p-id="11734"></path><path d="M294.393867 234.326957s3.960456-0.440051 8.801012-0.220026c6.160709 0.220025 13.861595 1.760202 16.501899 7.04081l-50.165771 259.849893-26.183012 25.302911-3.960456-23.762734 55.006328-268.210854z" fill="#CAE3E8" p-id="11735"></path><path d="M298.574348 261.830121l4.620531-27.72319s9.901139 0.880101 12.761468 3.080355l-8.580987 26.403037-8.801012-1.760202zM285.81288 396.485611l-22.882633 110.892757-6.380734 6.160709 25.082886-120.13382zM136.415693 310.235689h37.844354v216.064856H136.415693z" fill="#8ED0E0" p-id="11736"></path><path d="M149.617212 310.235689h9.241063v227.286147H149.617212z" fill="#A3BCCB" p-id="11737"></path><path d="M154.237743 195.602502s-6.820785 17.602025-7.260835 18.702151c-0.440051 1.100127 0 81.629391 0 81.629391h10.121164l-1.320151-104.291998-1.540178 3.960456z" fill="#9397AC" p-id="11738"></path><path d="M90.650428 237.627336l-6.160708 31.023569 14.52167 7.260836 0.440051-9.021038z" fill="#373838" p-id="11739"></path><path d="M99.451441 266.890703l11.221291 43.344986-2.860329 22.662607-27.943215-9.241063 4.400506-55.006328c0.220025 0 11.001266 3.74043 15.181747-1.760202z" fill="#E6D6B8" p-id="11740"></path><path d="M79.869188 314.41617s22.662607 10.34119 30.803544-4.180481l16.721923 197.58273-29.703417-4.620532-17.82205-188.781717z" fill="#D8B554" p-id="11741"></path><path d="M87.130023 316.836449s15.841822 2.420278 19.802278-1.980228l11.661342 191.642046-10.78124-1.760202-20.68238-187.901616z" fill="#E2C271" p-id="11742"></path><path d="M62.487188 493.516774S149.617212 528.940849 285.81288 497.257204l-33.223822 333.558372s-79.429137 24.642835-146.316833 5.280608L62.487188 493.516774z" fill="#EEE9CF" p-id="11743"></path><path d="M223.985767 507.818419s-9.021038 322.557107-19.802278 332.898296l33.663873-6.160708 23.102657-332.238221-36.964252 5.500633z" fill="#F7F4E6" p-id="11744"></path></svg>