<?xml version="1.0" standalone="no"?><!DOCTYPE svg PUBLIC "-//W3C//DTD SVG 1.1//EN" "http://www.w3.org/Graphics/SVG/1.1/DTD/svg11.dtd"><svg t="1764329597137" class="icon" viewBox="0 0 1024 1024" version="1.1" xmlns="http://www.w3.org/2000/svg" p-id="7548" xmlns:xlink="http://www.w3.org/1999/xlink" width="200" height="200"><path d="M845 418.6H712.3L697.4 337c0-22-18-40-40-40H363.2c-22 0-40 18-40 40l-14.9 81.6H175.6c-22 0-40 18-40 40v330.6c0 22 18 40 40 40H845c22 0 40-18 40-40V458.6c0-22-18-40-40-40z" fill="#186FED" p-id="7549"></path><path d="M845 849.2H175.6c-33.1 0-60-26.9-60-60V458.6c0-33.1 26.9-60 60-60h116l11.6-63.6c1.1-32.2 27.5-58 60-58h294.2c32.4 0 58.9 25.8 60 58l11.6 63.6h116c33.1 0 60 26.9 60 60v330.6c0 33.1-26.9 60-60 60zM175.6 438.6c-11 0-20 9-20 20v330.6c0 11 9 20 20 20H845c11 0 20-9 20-20V458.6c0-11-9-20-20-20H695.6l-18.3-99.8V337c0-11-9-20-20-20H363.2c-11 0-20 9-20 20v1.8l-18.3 99.8H175.6z" fill="#444D68" p-id="7550"></path><path d="M510.3 597.8m-124 0a124 124 0 1 0 248 0 124 124 0 1 0-248 0Z" fill="#F9CC12" p-id="7551"></path><path d="M510.3 741.8c-79.4 0-144-64.6-144-144s64.6-144 144-144 144 64.6 144 144-64.6 144-144 144z m0-248.1c-57.4 0-104 46.7-104 104s46.7 104 104 104 104-46.7 104-104-46.7-104-104-104z" fill="#444D68" p-id="7552"></path><path d="M532.3 557.4m-20.3 0a20.3 20.3 0 1 0 40.6 0 20.3 20.3 0 1 0-40.6 0Z" fill="#FFFFFF" p-id="7553"></path><path d="M556.8 587.4m-8.7 0a8.7 8.7 0 1 0 17.4 0 8.7 8.7 0 1 0-17.4 0Z" fill="#FFFFFF" p-id="7554"></path><path d="M510.3 782.7c-102 0-184.9-82.9-184.9-184.9s82.9-184.9 184.9-184.9 184.9 82.9 184.9 184.9-83 184.9-184.9 184.9z m0-349.8c-90.9 0-164.9 74-164.9 164.9s74 164.9 164.9 164.9 164.9-74 164.9-164.9-74-164.9-164.9-164.9z" fill="#444D68" p-id="7555"></path></svg>