<?xml version="1.0" standalone="no"?><!DOCTYPE svg PUBLIC "-//W3C//DTD SVG 1.1//EN" "http://www.w3.org/Graphics/SVG/1.1/DTD/svg11.dtd"><svg t="1764416028905" class="icon" viewBox="0 0 1024 1024" version="1.1" xmlns="http://www.w3.org/2000/svg" p-id="24179" xmlns:xlink="http://www.w3.org/1999/xlink" width="200" height="200"><path d="M505.07581 85.333333c-235.324952 0-426.666667 191.341714-426.666667 426.617905 0 235.27619 191.341714 426.715429 426.666667 426.715429 235.324952 0 426.569143-191.488 426.569142-426.715429S740.303238 85.333333 505.07581 85.333333z m0 820.614096c-216.941714 0-393.508571-176.810667-393.508572-394.044953S288.182857 118.00381 505.07581 118.00381c216.990476 0 393.313524 176.713143 393.313523 393.898666 0 217.185524-176.518095 393.99619-393.313523 393.996191z" p-id="24180"></path><path d="M505.07581 138.191238c-205.824 0-373.272381 167.643429-373.272381 373.711238 0 206.06781 167.448381 373.857524 373.272381 373.857524s373.126095-167.740952 373.126095-373.857524c0-206.165333-167.399619-373.711238-373.126095-373.711238zM348.306286 433.249524h-40.521143v209.968762h-68.266667V433.249524h-40.277333V380.830476h149.065143v52.419048z m133.90019 209.92H363.910095V380.781714h113.712762v52.46781h-45.494857v49.785905h42.569143v49.93219h-42.569143v57.685333h50.029714v52.516572h0.048762z m163.303619-25.746286c-4.388571 8.874667-12.873143 16.335238-25.35619 22.284191a100.59581 100.59581 0 0 1-43.788191 8.97219c-18.285714 0-33.889524-3.462095-46.811428-10.435048-12.970667-6.92419-21.357714-15.652571-25.356191-26.38019-4.096-10.727619-5.997714-25.892571-5.997714-45.543619v-17.164191h63.488v31.890286c0 9.898667 0.828952 16.188952 2.633143 19.017143 1.80419 2.82819 4.87619 4.144762 9.508571 4.144762a11.117714 11.117714 0 0 0 10.093715-5.36381c2.29181-3.510857 3.31581-8.874667 3.315809-15.847619 0-15.506286-2.048-25.6-6.339048-30.329904-4.388571-4.778667-14.921143-12.678095-31.987809-23.79581-16.920381-11.215238-28.184381-19.504762-33.645714-24.527238a55.442286 55.442286 0 0 1-13.702096-21.065143 92.745143 92.745143 0 0 1-5.461333-34.425905c0-20.089905 2.535619-34.816 7.753143-44.129523 5.217524-9.362286 13.360762-16.579048 24.771048-21.74781 11.410286-5.217524 25.35619-7.899429 41.447619-7.899429 17.846857 0 32.865524 2.82819 45.446095 8.582096 12.434286 5.753905 20.72381 12.873143 24.722286 21.650285 3.998476 8.728381 6.095238 23.454476 6.095238 44.27581v10.435048h-63.390477v-19.407239c0-9.069714-0.78019-14.872381-2.438095-17.359238-1.609143-2.438095-4.388571-3.657143-8.045714-3.657143a10.435048 10.435048 0 0 0-9.362286 4.924953 29.696 29.696 0 0 0-3.120762 15.311238c0 8.777143 1.170286 15.36 3.510857 19.797333 2.340571 4.437333 8.679619 9.801143 19.260953 16.091429 30.378667 17.993143 49.542095 32.768 57.441524 44.373333 7.899429 11.605333 11.849143 30.232381 11.800381 55.881143 0.048762 18.822095-2.194286 32.52419-6.485334 41.447619z m124.879238-184.173714v209.968762h-68.266666V433.249524h-40.374857V380.830476h149.113904v52.419048h-40.472381z" p-id="24181"></path></svg>