<?xml version="1.0" standalone="no"?><!DOCTYPE svg PUBLIC "-//W3C//DTD SVG 1.1//EN" "http://www.w3.org/Graphics/SVG/1.1/DTD/svg11.dtd"><svg t="1764166213982" class="icon" viewBox="0 0 2048 1024" version="1.1" xmlns="http://www.w3.org/2000/svg" p-id="981" xmlns:xlink="http://www.w3.org/1999/xlink" width="400" height="200"><path d="M1003.52 322.56h135.68c28.16 0 53.76 23.04 53.76 53.76 0 15.36-5.12 25.6-15.36 35.84h245.76c28.16 0 53.76 23.04 53.76 53.76S1454.08 519.68 1423.36 519.68H1128.96v7.68H1300.48c23.04 0 46.08 12.8 58.88 33.28H1930.24c28.16 0 53.76 23.04 53.76 53.76 0 28.16-23.04 53.766144-53.76 53.766144h-145.92 40.96c38.4 0 66.56 28.153856 66.56 66.56 0 38.4-28.16 66.56-66.56 66.56H1740.8v20.473856h253.44c28.16 0 53.76 23.04 53.76 53.766144 0 30.72-23.04 46.08-53.76 46.08H1213.44c-17.92 25.593856-48.64 43.52-84.48 43.52H102.4c-58.88 0-102.4-46.08-102.4-102.4 0-46.086144 33.28-87.04 76.8-99.846144h125.44c28.16 0 53.76-23.033856 53.76-53.76C256 680.96 232.96 655.36 202.24 655.36H184.32c-25.6-7.68-43.52-35.84-43.52-64 0-38.4 28.16-66.56 66.56-66.56h245.76c5.12 0 7.68 2.56 15.36 2.56h128c28.16 0 53.76-23.04 53.76-53.76 0-28.16-23.04-53.76-53.76-53.76h-128c-5.12 0-7.68 0-15.36 2.56H327.68c-28.16 0-53.76-23.04-53.76-53.76 0-28.16 23.04-53.76 53.76-53.76h161.28C491.52 317.44 494.08 317.44 501.76 317.44h186.88c12.8 0 20.48-7.68 20.48-20.48s-7.68-20.48-20.48-20.48H640c-5.12-2.56-12.8-12.8-12.8-17.92 0-12.8 7.68-20.48 20.48-20.48H911.36c12.8 0 20.48 7.68 20.48 20.48 0 7.68-2.56 15.36-12.8 17.92H798.72c-12.8 0-20.48 7.68-20.48 20.48s7.68 20.48 20.48 20.48h186.88c12.8 7.68 15.36 5.12 17.92 5.12z" fill="#EBF8FE" p-id="982"></path><path d="M1344.41984 559.104l23.04-11.264c11.264-5.632 17.408-11.264 23.04-16.896 12.806144-9.216 19.462144-17.92 27.648-30.72 55.808-67.072 66.56-160.768 27.648-241.152-54.784-112.64-190.976-157.696-301.056-103.936-36.864 17.92-65.536 46.08-86.528 73.728-9.209856 10.24-12.8 20.48-16.384 30.72-2.56 6.656-8.192 18.432-10.752 25.088s-4.608 19.456-7.168 26.112c-8.192 47.104-2.048 95.232 20.48 140.8 54.272 116.736 187.392 162.304 300.032 107.52z" fill="#FFFFFF" p-id="983"></path><path d="M837.12 243.2l-20.48 38.4-17.92-38.4-38.4-17.92L798.72 204.8l17.92-35.84 20.48 35.84 38.4 20.48-38.4 17.92zM1372.16 962.56l-20.48 35.846144L1333.76 962.56l-38.4-20.473856 38.4-17.92L1351.68 885.76l20.48 38.406144 35.84 17.92L1372.16 962.56z m384-555.52l-20.48 38.4-17.92-38.4L1679.36 389.12l38.4-20.48 17.92-35.84 20.48 35.84 33.286144 20.48-33.286144 17.92zM1666.56 855.04l-20.473856 38.4-15.36-38.4-38.4-20.48 38.4-17.92 15.36-38.4 20.473856 38.4 35.84 17.92-35.84 20.48z m-373.76-171.52l-7.68 20.48-12.8-20.48-20.48-7.68 20.48-12.8 12.8-20.48 7.68 20.48 20.48 12.8-20.48 7.68zM839.68 593.92l-12.8 20.48-7.68-20.48-20.48-12.8 20.48-7.68 7.68-20.48 12.8 20.48 20.48 7.68-20.48 12.8z m821.76-327.68l-10.24 20.48-10.24-20.48-20.48-12.8 20.48-7.68 10.24-20.48 10.24 20.48 20.48 7.68-20.48 12.8z" fill="#FFF34C" p-id="984"></path><path d="M1056.258048 952.832l17.408 4.102144c5.12 1.017856 15.36 1.017856 20.48 2.041856 8.192-0.512 18.432-1.024 26.624-1.536 60.416-12.288 104.96-57.344 119.808-119.808 19.462144-84.992-31.744-169.984-118.777856-190.464-27.136-6.144-55.296-5.632-81.92 2.048-8.192 1.024-16.896 4.096-23.552 10.24-5.632 1.536-9.216 5.632-18.432 11.264-6.144 4.096-9.216 5.632-15.872 12.288-27.136 21.504-46.08 51.2-53.76 84.992-10.754048 81.408 40.957952 164.352 127.993856 184.832z" fill="#78DAFE" p-id="985"></path><path d="M1051.648 962.048c-20.48-2.048-40.96-4.096-62.464-14.336-59.392-26.624-101.376-83.968-99.328-148.992-1.024-8.192 2.048-20.48 1.536-28.672l5.12-22.528c1.024-5.12 3.072-12.288 7.168-19.456 35.328-83.968 133.632-123.904 218.112-91.648 33.792 13.312 59.904 37.376 81.408 68.608 2.048 3.072-0.512 12.8-3.584 14.848s-13.312-0.512-14.848-3.584c-14.848-27.136-38.912-48.128-70.144-60.928-73.728-32.768-163.84 4.096-191.488 79.36-1.024 5.12-5.12 11.776-6.656 16.896l-4.608 19.968c-1.536 7.68-1.536 17.92-3.072 25.6 2.048 58.368 37.376 111.104 90.624 131.072 16.896 6.656 36.864 11.264 54.784 12.8 5.12 1.024 11.776 5.632 10.752 10.24-1.536 5.632-5.12 9.728-13.312 10.752z m32.768-5.632c-5.12-1.024-7.68-1.536-11.264-7.68-1.536-5.632 3.072-12.288 7.68-11.264 2.56 0.512 5.632-1.536 8.192-0.512 5.632-1.536 12.288 3.072 14.336 6.144 1.536 5.632-3.072 12.288-6.144 14.336-4.608-2.048-7.68 0-12.8-1.024 2.56 0.512 0 0 0 0z m38.912-9.216c-2.56-0.512-7.68-1.536-6.656-4.096-2.048-3.072 0.512-12.8 6.144-14.336 33.792-16.896 60.928-45.056 76.288-79.872 10.752-23.552 14.848-51.712 12.288-75.776-1.536-5.632 3.072-12.288 7.68-11.264 5.632-1.536 12.288 3.072 11.264 7.68 1.536 26.624 0 57.856-13.824 83.456-16.896 38.4-45.568 71.168-86.016 88.064l-7.168 6.144z m85.504-187.904c-2.56-0.512-7.68-1.536-11.264-7.68-2.048-3.072-1.536-5.632-3.072-8.704-1.536-5.632 0.512-13.312 6.144-14.336 5.632-1.536 13.312 0.512 14.336 6.144 2.048 3.072 1.536 5.632 2.048 13.824 1.536 2.56 0.512 7.168-8.192 10.752 2.56 0.512 0 0 0 0z" fill="#33BFE5" p-id="986"></path><path d="M1080.832 721.414144c-4.089856-6.144-16.384-9.216-22.521856-5.12-6.144 4.096-9.216 16.377856-5.12 22.528l34.297856 55.296s3.584-4.608 15.36-9.728c8.704-3.078144 15.36-9.734144 15.36-9.734144l-37.376-53.241856m63.494144-34.816c-4.096-6.144-16.390144-9.216-22.528-5.12-6.144 4.096-9.216 16.384-5.12 22.528l34.816 55.296s3.584-4.608 15.36-9.728l15.36-9.728-37.888-53.248" fill="#2CA5FE" p-id="987"></path><path d="M1242.624 767.494144c40.96 27.648 67.584 60.416 61.958144 84.992-12.288 52.224-124.422144 71.168-248.832 42.489856-124.422144-28.672-217.094144-94.72-205.318144-147.456 6.144-27.648 24.100864-48.287744 73.252864-55.455744-1.542144 7.68-7.174144 19.462144-10.24 31.750144-21.510144 3.072-15.39072 10.911744-17.444864 18.591744-5.632 25.088 71.168 66.56 171.014144 89.6 99.84 23.04 186.88 22.016 193.024-5.12 1.536-7.68-8.192-20.48-21.504-31.232 2.048-7.68 1.536-17.92 4.089856-28.16z" fill="#F3FDFF" p-id="988"></path><path d="M1160.443904 909.824a665.124864 665.124864 0 0 1-127.04768-13.824c-29.82912-6.137856-58.55232-15.36-87.82848-24.064-5.523456-1.024-6.629376-6.656-4.970496-14.336 1.656832-7.68 7.180288-6.144 15.466496-4.608 26.515456 8.198144 55.238656 16.896 85.069824 23.552 142.512128 30.72 244.701184 7.68 254.646272-32.249856 4.970496-19.974144-11.599872-44.544-45.295616-67.584l-1.656832 7.68c19.884032 12.288 24.856576 26.112 21.542912 38.912-4.419584 17.408-29.82912 27.648-75.124736 28.672-6.076416 1.536-12.703744-5.12-12.152832-7.68 1.103872-5.12 5.523456-11.776 8.28416-11.264 41.981952 1.024 53.583872-9.728 54.134784-12.288 0.55296-2.56-3.313664-8.704-19.888128-22.534144l-4.968448-3.577856 1.103872-5.12c3.311616-12.294144 2.209792-20.48 5.523456-32.768l1.656832-17.92 14.915584 8.192c54.130688 32.768 76.77952 66.56 69.046272 98.816-2.762752 43.52-64.628736 64.512-152.457216 63.993856zM910.768128 854.016l-5.525504-1.024c-72.914944-36.864-108.265472-78.336-99.428352-113.145856 8.286208-32.256 49.721344-52.230144 111.581184-60.422144l17.129472-1.536-7.186432 16.896c-1.65888 7.68-7.733248 19.456-9.383936 26.630144l-1.10592 5.113856-6.076416 1.542144c-23.205888 3.072-30.932992 9.216-31.492096 11.776-0.55296 2.56 4.419584 16.896 43.085824 32.768 35.905536 15.36 82.305024 33.28 133.681152 44.544 18.776064 4.096 37.564416 8.192 56.889344 9.728 5.523456 1.024 12.705792 5.632 11.60192 10.24-1.10592 5.12-5.525504 11.776-11.04896 10.752-18.782208-4.096-38.115328-5.632-59.656192-10.24-51.372032-10.752-103.849984-27.648-139.20256-45.568-39.770112-21.504-58.550272-38.912-54.132736-56.32 3.866624-14.848 19.88608-22.016 46.401536-26.624l1.656832-7.68c-44.189696 6.144-70.705152 21.504-75.675648 41.472-6.076416 25.088 26.513408 63.488 88.38144 89.6 5.523456 1.017856 6.627328 6.656 2.209792 13.817856-6.629376 6.144-9.94304 8.192-12.703744 7.68z m258.510848-2.56c-8.28416-1.536-16.56832-1.024-24.856576-2.56-5.521408-1.024-12.703744-5.632-11.597824-10.24 1.107968-5.12 6.076416-11.776 11.046912-10.752 8.286208 1.536 16.572416 1.024 22.095872 2.048s12.703744 5.12 11.599872 10.24c1.103872 7.68-2.762752 12.288-8.288256 11.264z" fill="#C2F2FF" p-id="989"></path><path d="M366.08 598.018048c12.8 0 20.48 0 33.28-2.56 12.8 0 23.04-2.56 35.84-5.12 15.36-2.56 33.28-7.68 46.08-17.92 89.6-40.96 153.6-135.68 153.6-243.2 0-148.48-120.32-268.8-268.8-268.8C317.44 60.416 271.36 73.216 235.52 96.256c-15.36 5.12-25.6 15.36-38.4 23.04-7.68 5.12-17.92 15.36-23.04 23.04-7.68 7.68-15.36 17.92-20.48 25.6-35.84 43.52-53.76 99.84-53.76 161.28-2.56 145.92 117.76 268.802048 266.24 268.802048z" fill="#FFDA00" p-id="990"></path><path d="M345.6 581.12c-156.16 0-281.6-125.44-281.6-281.6 0-61.44 20.48-120.32 56.32-166.4 2.56-5.12 7.68-5.12 15.36-2.56 5.12 5.12 5.12 12.8 2.56 15.36C102.4 189.44 84.48 245.76 84.48 302.08c0 143.36 117.76 261.12 261.12 261.12 7.68 0 20.48 0 28.16-2.56 12.8 0 23.04-2.56 35.84-5.12 15.36-2.56 28.16-7.68 43.52-15.36C542.72 499.2 604.16 404.48 604.16 302.08c0-40.96-7.68-79.36-25.6-115.2-2.56-5.12 0-12.8 5.12-15.36s12.8 0 15.36 5.12c20.48 38.4 28.16 79.36 28.16 122.88 0 107.52-64 207.36-163.84 253.44-15.36 5.12-33.28 12.8-46.08 17.92-12.8 2.56-25.6 5.12-38.4 5.12-12.8 5.12-23.04 5.12-33.28 5.12z m225.28-414.72c-2.56 0-5.12-2.56-7.68-5.12-5.12-5.12-7.68-10.24-10.24-15.36-2.56-2.56-2.56-7.68 2.56-10.24s12.8-2.56 15.36 2.56 5.12 7.68 12.8 15.36c2.56 5.12 2.56 12.8-2.56 15.36-7.68-5.12-7.68-2.56-10.24-2.56z m-419.84-40.96c-2.56 0-5.12 0-5.12-2.56-2.56-2.56-2.56-7.68 0-15.36 5.12-7.68 15.36-15.36 23.04-23.04C174.08 81.92 181.76 81.92 184.32 87.04c2.56 2.56 2.56 12.8-2.56 15.36-7.68 5.12-15.36 12.8-23.04 20.48 0 2.56-2.56 2.56-7.68 2.56z m378.88-10.24H522.24c-48.64-48.64-112.64-71.68-176.64-71.68-43.52 0-87.04 12.8-128 35.84-5.12 2.56-12.8 0-15.36-2.56-2.56-5.12 0-12.8 2.56-15.36 40.96-23.04 89.6-35.84 138.24-35.84 69.12 0 138.24 25.6 189.44 74.24 2.56 2.56 2.56 7.68 0 15.36h-2.56z" fill="#FFAA00" p-id="991"></path><path d="M353.97632 247.232512c1.835008-12.668928 13.436928-21.334016 23.570432-19.867648 13.033472-0.698368 19.900416 5.46816 18.067456 18.13504l-9.170944 63.340544c-1.835008 12.668928-10.53696 19.167232-23.20384 17.332224-12.668928-1.835008-19.167232-10.534912-17.334272-23.20384l8.071168-55.73632z m159.617024 23.11168c1.835008-12.668928-4.298752-23.902208-16.96768-25.737216-9.76896-4.001792-20.635648-0.401408-22.102016 9.732096l-9.172992 63.340544c-1.835008 12.668928 4.665344 21.368832 17.334272 23.20384 12.668928 1.835008 21.368832-4.665344 23.20384-17.332224l7.704576-53.20704z m-70.85056 132.009984c-5.066752-0.733184-7.233536-3.633152-6.500352-8.701952l1.099776-7.600128c1.835008-12.668928-4.298752-23.902208-19.499008-26.103808-15.202304-2.2016-23.902208 4.298752-26.103808 19.499008l-1.101824 7.600128c-0.733184 5.066752-3.633152 7.233536-8.701952 6.500352-5.066752-0.733184-12.300288-4.366336-11.200512-11.968512l1.099776-7.600128c2.934784-20.269056 23.238656-35.436544 43.507712-32.50176 20.267008 2.934784 35.434496 23.238656 32.50176 43.507712l-1.101824 7.600128c3.969024 8.33536 1.067008 10.504192-3.999744 9.76896z" fill="#FB8D03" p-id="992"></path><path d="M1605.12 733.184l12.288-3.072c5.12-1.024 7.68-2.048 14.336-6.144 4.608-3.584 11.776-5.632 15.872-9.216 30.72-26.112 44.032-67.072 34.304-105.984-13.824-54.784-69.12-88.064-123.904-74.752-17.408 4.096-33.28 13.824-43.52 26.624-4.608 3.584-6.144 6.656-12.8 11.264l-5.632 9.216-5.632 9.216c-8.192 20.48-10.752 41.984-5.12 64.512 9.216 58.368 65.024 91.648 119.808 78.336z" fill="#FF8080" p-id="993"></path><path d="M1571.84 734.208c-41.472 2.56-76.8-23.033856-99.328-59.904-3.584-4.096-6.144-14.336-7.68-19.456l-3.584-14.848c-0.512-2.56-2.048-7.68-0.512-12.8-2.048-28.672 6.144-59.392 26.624-83.456 17.92-23.04 49.152-35.84 77.824-37.888 23.04-3.072 48.64 3.584 68.096 19.968 3.072 2.048 4.608 6.656 5.632 11.776 2.56-0.512 7.68-2.048 12.8-0.512 1.536 1.024 3.072 2.56 3.584 4.096 3.072 2.048 3.584 4.096 2.048 7.168 2.56-0.512 5.632 1.536 8.704 3.072 9.216 16.384 16.896 35.328 18.944 55.808 2.048 28.678144-6.656 57.350144-25.6 77.824-2.048 3.078144-6.656 4.102144-12.288 3.078144 0.512 2.56 2.048 7.68-2.048 13.824-2.56 0.512-4.608 3.577856-4.608 3.577856-4.608 3.584-12.288 3.078144-13.824-2.041856-3.584-4.608-3.072-12.294144 2.048-13.824 2.56-0.512 2.048-3.072 4.608-3.584 2.048-3.072 5.12-1.024 7.68-2.048-0.512-2.56-1.024-5.12 0.512-8.192 13.824-19.456 23.552-43.008 20.48-65.542144-1.024-15.36-8.192-32.256-13.824-44.032l-2.048-7.68c-2.56 0.512-5.632-1.024-6.144-3.584s-3.072-2.048-3.584-4.096c-3.072-2.048-3.584-4.096-2.048-7.168-2.56 0.512-5.12 1.024-8.192-0.512-18.432-11.264-37.888-14.336-58.88-14.336-23.04 3.072-47.104 11.776-63.488 31.744S1477.632 604.16 1480.704 627.206144l3.072 12.288 3.072 12.288c1.024 5.12 3.072 12.288 6.656 16.896 15.872 32.768 52.224 50.176 88.064 46.592 12.8-0.512 23.04-3.072 34.816-8.704 5.12-1.024 12.8-0.512 14.336 4.608 1.024 5.12 0.512 13.312-4.608 14.336-14.336 6.144-26.624 9.216-39.936 9.728-9.728-2.048-12.288-1.536-14.336-1.030144z" fill="#F76161" p-id="994"></path><path d="M1662.201856 556.288c34.304-0.512 47.366144 12.032 51.462144 29.44 6.662144 27.136-50.681856 70.656-133.113856 91.136-81.926144 20.48-152.064 14.336-160.256-17.92-4.614144-17.408 8.544256-36.608 38.752256-51.968 1.024 5.12 0.505856 12.8 2.048 17.92-13.824 8.704-14.6944 11.52-13.1584 19.2 3.584 14.848 61.44 13.824 125.952-2.56 64.518144-16.384 116.224-41.984 112.646144-56.832-1.030144-5.12-2.828288-12.544-15.622144-12.032-3.072-4.608-4.608-9.728-8.710144-16.384z" fill="#FFE9E9" p-id="995"></path><path d="M1503.232 704c-50.681856-3.072-82.937856-16.384-90.105856-43.52-5.632-22.528-2.912256-37.545984 30.885888-61.609984l13.824-8.704 2.048 17.92c1.024 5.12 1.024 15.36 2.56 20.48l1.024 5.12-4.608 3.584c-11.264 8.192-0.677888 1.705984-0.677888 1.705984 3.584 4.096 45.056 12.288 112.128-4.096l34.816-8.704c5.12-1.024 13.312-0.512 14.336 4.608s0.512 12.8-4.608 14.336l-34.816 8.704c-32.256 8.192-62.464 12.8-86.528 13.824-29.184-0.512-46.592-6.656-50.176-22.016-0.512-2.56-2.048-7.68-0.512-12.8-6.144 6.656-8.704 17.92-7.68 23.04 4.608 17.408 31.232 29.184 70.144 27.136 5.632 1.024 8.704 3.072 8.192 11.264-3.072 5.12-5.12 8.192-10.246144 9.728z m29.184 0.518144c-5.12 1.017856-8.704-3.078144-10.752-10.758144-1.024-5.12 3.078144-8.704 10.752-10.752 17.92-2.048 35.328-6.144 52.736-10.752 37.376-9.216 73.216-23.552 95.232-41.984 19.462144-17.92 31.744-31.744 28.672-44.032-2.048-7.68-9.209856-16.384-23.04-17.92 6.144 3.584 6.656 6.144 8.704 13.824 3.584 14.848-9.216 26.112-34.304 43.008-2.56 0.512-7.68 2.048-8.192-0.512 0.512 2.56-1.024 5.632-6.144 6.656s-6.656 4.096-14.336 6.144c-5.12 1.024-13.312 0.512-14.336-4.096-1.024-5.12-0.512-13.312 4.608-14.336s7.68-2.048 14.336-6.144c2.56-0.512 5.12-1.024 8.192 0.512-0.512-2.56 1.024-5.632 3.584-6.144 18.432-9.728 21.504-18.432 21.504-18.432s18.774016-2.048 7.510016-4.096l-5.632-1.024-1.024-5.12c-1.024-5.12-3.584-14.848-7.168-19.456l-6.656-16.896 16.384 1.024c40.96 5.632 41.641984 20.992 47.273984 43.52 5.12 19.968-7.68 44.032-33.792 66.56-24.064 19.456-61.952 36.864-101.888 46.592-16.896-1.536-34.304 3.072-52.224 4.614144z" fill="#FFB8B8" p-id="996"></path><path d="M1366.532096 559.106048l23.04-11.264c11.264-5.632 17.408-11.264 23.04-16.896 12.806144-9.216 19.462144-17.92 27.648-30.72 55.808-67.072 66.56-160.768 27.648-241.152-54.784-112.64-190.976-157.696-301.056-103.936-36.864 17.92-65.536 46.08-86.528 73.728-9.209856 10.24-12.8 20.48-16.384 30.72-2.56 6.656-8.192 18.432-10.752 25.088s-4.608 19.456-7.168 26.112c-8.192 47.104-2.048 95.232 20.48 140.8 54.272 116.736 187.392 162.304 300.032 107.52z" fill="#ACE838" p-id="997"></path><path d="M1238.528 580.096c-67.584 1.536-133.632-28.672-178.688-80.896-9.216-12.8-15.872-20.992-22.528-34.304l-14.848-30.208c-3.584-6.656-5.632-17.408-8.704-24.064-15.36-60.928-10.24-125.952 21.510144-178.176 32.761856-55.808 82.425856-94.208 141.817856-112.128 47.104-14.336 101.894144-12.8 147.456 4.608 3.584 1.024 7.68 10.24 6.656 13.824s-10.24 7.68-13.824 6.656c-45.568-17.408-91.648-17.92-136.192-4.608-53.76 17.92-102.4 52.736-129.024 102.912s-35.328 108.544-16.384 164.864c3.584 6.656 5.632 17.408 7.68 22.016l12.288 25.088c5.632 11.264 13.312 22.016 21.504 32.256 54.272 64.512 141.312 90.624 223.744 67.584 31.232-9.728 60.416-26.112 84.992-47.104 3.584-4.608 12.8-3.584 13.824-1.024 4.608 3.584 3.072 12.8 1.024 13.824-28.672 22.528-56.32 41.984-92.16 50.688-27.648 7.68-49.664 9.728-70.144 8.192z m168.96-79.36c-2.048 1.024-3.584-1.024-6.656-2.56-4.608-3.584-5.632-11.264-1.024-13.824 1.024-3.584 5.632-5.632 9.216-10.24s11.264-5.632 14.848-4.608c4.608 3.584 5.632 11.264 4.608 14.848-3.584 4.608-4.608 8.192-11.776 11.264-3.584 5.12-5.632 6.144-9.216 5.12zM1437.696 457.216l-3.584-1.024c-4.608-3.584-7.68-10.24-4.608-14.848 24.576-49.152 30.72-105.984 14.336-157.696-12.288-36.864-31.232-70.144-55.296-95.744-4.608-3.584-5.632-11.264-1.024-13.824 3.584-4.608 11.776-5.632 13.824-1.024 30.72 27.648 50.688 63.488 59.392 104.96 14.336 58.368 11.264 116.736-16.384 170.496 2.56 4.608-3.072 10.24-6.656 8.704z m-71.68-286.72c-2.56 1.024-3.584-1.024-3.584-1.024-5.632-5.632-13.824-10.24-24.064-13.824-4.608-3.584-7.68-10.24-4.608-14.848 3.584-4.608 10.24-8.192 14.848-4.608 8.192 4.608 19.456 10.752 24.064 13.824 4.608 3.584 5.632 11.264 4.608 14.848l-11.264 5.632z" fill="#9ACC21" p-id="998"></path><path d="M1111.552 303.104c-5.632-11.264-15.872-14.848-27.648-9.216-11.264 5.632-14.848 15.872-9.209856 27.136l36.864 75.776 18.432-9.216 18.432-9.216L1111.552 303.104z m119.808-58.368c-5.632-11.264-15.872-14.848-27.136-9.216s-14.848 15.872-9.216 27.648l36.870144 75.776 18.432-9.216 18.432-9.216c-0.512 0-37.376-75.776-37.382144-75.776z" fill="#73AA13" p-id="999"></path><path d="M1413.175296 174.739456c67.186688-10.752 117.827584-4.608 131.866624 25.6 25.069568 52.736-84.736 161.792-246.685696 242.688-162.451456 80.896-313.87648 102.4-338.944 49.152-14.03904-29.696-7.72096-65.026048 46.430208-114.690048 3.01056 12.8 7.522304 22.016 13.037568 33.28-21.561344 19.456-11.83744 29.184-6.322176 40.96 12.034048 25.088 129.86368-2.048 260.728832-67.072s226.629632-138.752 212.59264-168.448c-5.515264-11.264-22.564864-11.776-48.134144-7.168-8.024064-16.893952-14.5408-25.085952-24.569856-34.301952z" fill="#FFFFFF" p-id="1000"></path><path d="M1423.415296 178.176c67.186688-10.752 117.827584-4.608 131.866624 25.6 25.069568 52.736-84.736 161.792-246.685696 242.688-162.451456 80.896-313.87648 102.4-338.944 49.152-14.03904-29.696-7.72096-65.026048 46.430208-114.690048 3.01056 12.8 7.522304 22.016 13.037568 33.28-21.561344 19.456-11.83744 29.184-6.322176 40.96 12.034048 25.088 129.86368-2.048 260.728832-67.072s226.629632-138.752 212.59264-168.448c-5.515264-11.264-22.564864-11.776-48.134144-7.168-8.024064-16.893952-14.5408-25.085952-24.569856-34.301952z" fill="#FCFFF0" p-id="1001"></path><path d="M1014.272 535.552c-45.568-0.512-74.24-12.288-85.504-35.328-16.896-34.304 8.704-81.408 71.168-134.144l12.8-9.216 4.608 14.848c3.072 12.8 7.68 22.016 13.312 33.28l2.048 4.608-3.584 4.608C997.888 443.904 1001.472 450.56 1001.472 450.56c5.632 11.264 90.624 4.096 253.952-75.264 29.696-14.336 57.344-28.16 83.968-44.032 4.608-2.048 12.8-3.584 14.848 1.024s3.072 12.8-1.536 14.848c-24.064 14.848-56.32 30.208-86.528 45.056-66.56 32.768-182.784 80.896-241.152 77.824-19.456 1.024-30.72-4.608-35.328-13.824-6.656-13.824 1.536-32.256 26.624-55.808-2.56-4.608-4.096-9.728-4.608-14.848-45.056 41.984-66.048 80.896-55.808 101.376 14.848 29.696 86.528 31.744 184.32 4.096 4.608-2.048 9.216 1.024 12.288 8.192 2.048 4.608-1.024 9.216-8.192 12.288-55.296 18.944-97.792 25.6-130.048 24.064z" fill="#DEEFB4" p-id="1002"></path><path d="M1177.088 501.76c-3.584-1.024-6.656-2.56-8.192-4.608-2.048-4.608 1.024-9.216 8.192-12.288 36.864-12.288 71.168-29.184 108.032-47.104 78.336-37.888 146.432-85.504 195.072-132.096 86.407168-83.283968 60.919808-79.40096 51.2-99.328-10.24-20.48-50.176-26.624-107.52-21.504 2.048 4.608 3.584 7.168 9.216 12.8 28.672-5.632 45.568 0.512 52.736 14.336 9.216 18.432-9.728 44.544-55.808 78.336-4.608 2.048-12.8 3.072-14.848-1.024-2.048-4.608-3.584-12.8 1.024-14.848 45.056-36.352 50.688-53.248 49.664-55.808s-10.24-9.216-40.96-2.56H1419.264l-2.041856-4.608c-5.632-11.264-12.288-19.456-17.926144-31.232l-9.209856-12.8 15.865856-2.048c79.36-12.8 130.56-1.024 144.896 29.184 14.848 29.696-6.656 74.24-57.344 121.856-48.64 46.592-118.784 95.232-201.728 135.168-36.864 17.92-74.752 33.792-110.592 48.128-1.536 6.656-4.096 2.048-4.096 2.048z" fill="#DEEFB4" p-id="1003"></path><path d="M1362.432 337.408c-2.56 1.024-5.632 0-8.192-4.608-2.048-4.608 12.68736-29.07136 17.29536-31.11936 11.270144-5.632 1.13664 5.00736 12.40064-0.62464 4.614144-2.048 12.806144-3.584 14.848 1.024 2.048 4.608 3.584 12.8-1.024 14.848-6.656 3.584-17.408 11.264-28.672 16.896l-6.656 3.584z" fill="#DEEFB4" p-id="1004"></path><path d="M1502.72 576c0-5.12 5.12-7.68 12.8-7.68 5.12 0 7.686144 5.12 7.686144 12.8l-7.686144 40.96s-2.56-2.56-7.68-2.56-10.24-5.12-10.24-5.12l5.12-38.4M1556.48 586.24c0-5.12 5.12-7.68 12.8-7.68 5.12 0 7.686144 5.12 7.686144 12.8l-7.686144 40.96s-2.56-2.56-7.68-2.56-7.68-2.56-7.68-2.56l2.56-40.96" fill="#F76161" p-id="1005"></path><path d="M212.20352 239.321088a16.896 16.896 0 1 1-33.792 0v-2.9184a16.896 16.896 0 0 1 16.896-16.896 16.896 16.896 0 0 1 16.896 16.896v2.9184zM178.41152 297.951232a16.893952 16.893952 0 0 1-16.896 16.893952 16.896 16.896 0 0 1-16.896-16.893952v-0.264192a16.896 16.896 0 1 1 33.792 0v0.264192zM178.41152 424.073216a8.448 8.448 0 0 1-16.896 0v-2.74432a8.448 8.448 0 0 1 16.896 0v2.74432z" fill="#FFC200" p-id="1006"></path><path d="M245.999616 415.232m-18.432 0a18.432 18.432 0 1 0 36.864 0 18.432 18.432 0 1 0-36.864 0Z" fill="#FFC200" p-id="1007"></path></svg>