<?xml version="1.0" standalone="no"?><!DOCTYPE svg PUBLIC "-//W3C//DTD SVG 1.1//EN" "http://www.w3.org/Graphics/SVG/1.1/DTD/svg11.dtd"><svg height="214" node-id="1" sillyvg="true" template-height="214" template-width="235" version="1.1" viewBox="0 0 235 214" width="235" xmlns="http://www.w3.org/2000/svg" xmlns:xlink="http://www.w3.org/1999/xlink"><defs node-id="35"></defs><g node-id="60"><path d="M 141.62 16.48 C 141.62 16.48 181.77 -4.91 189.30 3.17 C 196.83 11.26 177.47 28.57 181.65 48.22 C 181.65 48.22 141.62 39.12 141.62 16.48 Z" fill="#a3d9ff" fill-rule="nonzero" group-id="1" id="Shape" node-id="9" stroke="none" target-height="53.128998" target-width="55.208023" target-x="141.624" target-y="-4.911"></path><path d="M 2.25 94.61 C 2.25 94.61 -4.99 79.37 15.57 75.32 C 15.57 75.32 -2.23 16.83 77.12 2.52 C 163.18 -13.00 229.17 82.13 222.31 174.22 L 200.31 182.93 C 200.31 182.93 200.31 68.48 47.42 97.09 C 47.42 97.09 6.88 110.36 2.25 94.61 Z" fill="#a3d9ff" fill-rule="nonzero" group-id="1" id="Shape" node-id="10" stroke="none" target-height="195.92601" target-width="234.16199" target-x="-4.991" target-y="-12.998999"></path><g node-id="61"><path d="M 181.08 43.36 C 180.52 25.76 196.21 10.59 189.30 3.17 C 184.83 -1.62 168.88 3.96 156.64 9.30 C 156.64 9.30 181.06 -5.52 181.06 5.19 C 181.06 10.74 173.21 25.84 172.22 34.46 C 144.68 6.91 112.13 -3.79 77.11 2.52 C -2.22 16.83 15.57 75.33 15.57 75.33 C -4.99 79.37 2.25 94.61 2.25 94.61 C 6.88 110.36 47.42 97.09 47.42 97.09 C 168.26 74.48 193.59 141.23 198.90 170.21 C 193.79 138.98 170.38 62.48 64.05 82.37 C 64.05 82.37 24.84 94.01 24.84 86.67 C 24.84 86.67 18.56 73.45 36.40 69.94 C 36.40 69.94 35.82 68.94 35.24 67.24 C 46.82 83.09 105.24 71.98 105.24 71.98 C 181.08 74.18 199.51 155.10 199.51 155.10 L 199.51 155.09 C 199.81 160.65 200.35 171.19 200.35 174.93 C 200.35 180.10 221.51 174.93 221.51 174.93 C 221.51 174.93 223.20 165.21 221.97 150.32 C 222.66 157.22 222.86 164.18 222.51 171.12 C 225.34 122.43 209.49 74.79 181.08 43.36 Z M 36.13 51.25 C 36.48 50.51 36.92 49.75 37.38 48.99 C 37.39 49.01 37.39 49.02 37.39 49.03 C 36.94 49.79 36.51 50.53 36.13 51.25 Z M 72.59 5.77 C 133.05 -12.53 188.34 49.60 209.59 99.77 C 225.64 137.67 218.76 177.44 202.76 130.29 C 196.71 111.43 178.70 90.99 157.53 75.46 C 128.51 54.16 91.60 43.58 62.87 51.13 C 56.34 52.57 36.35 60.72 31.18 51.25 C 31.18 51.25 23.86 15.17 72.59 5.77 Z" fill="#61a7d9" fill-opacity="0.36" fill-rule="nonzero" group-id="1,2" id="Shape" node-id="12" stroke="none" target-height="192.63298" target-width="230.62903" target-x="-4.99" target-y="-12.534"></path></g><path d="M 199.70 176.30 C 204.58 103.01 139.71 66.09 70.61 66.09 C 45.05 66.09 -4.13 69.08 1.15 91.58 C 1.48 93.91 2.25 95.54 2.25 95.54 C 6.88 111.30 47.42 98.03 47.42 98.03 C 176.13 73.95 196.48 151.25 199.70 176.30 Z" fill="#f0f0ff" fill-rule="nonzero" group-id="1" id="Shape" node-id="13" stroke="none" target-height="110.20799" target-width="208.709" target-x="-4.128" target-y="66.088"></path><g node-id="62"><path d="M 199.55 159.31 C 199.52 162.85 199.32 166.48 198.90 170.21 C 196.74 146.92 183.57 67.22 57.33 84.23 C 57.33 84.23 18.24 91.92 14.34 87.33 C 14.34 87.33 12.77 85.79 12.54 83.62 C 11.64 79.17 13.09 75.62 16.16 72.81 C 5.73 76.63 -0.97 82.52 1.15 91.58 C 1.48 93.91 2.25 95.55 2.25 95.55 C 6.88 111.30 47.42 98.03 47.42 98.03 C 176.13 73.95 196.48 151.25 199.70 176.30 C 200.09 170.40 200.03 164.74 199.55 159.31 Z" fill="#6e6e96" fill-opacity="0.15" fill-rule="nonzero" group-id="1,3" id="Shape" node-id="15" stroke="none" target-height="109.079" target-width="201.065" target-x="-0.971" target-y="67.219"></path></g><path d="M 83.56 87.14 C 83.56 87.14 82.98 113.26 129.89 120.73 C 129.89 120.73 144.33 121.93 133.94 110.78 C 123.56 99.62 122.94 92.12 102.09 85.90 C 81.24 79.68 83.56 87.14 83.56 87.14 Z" fill="#94cbeb" fill-rule="nonzero" group-id="1" id="Shape" node-id="16" stroke="none" target-height="42.253998" target-width="63.08499" target-x="81.244" target-y="79.677"></path><g node-id="63"><g node-id="69"><path d="M 133.94 110.78 C 128.61 105.05 125.85 100.30 121.62 96.17 C 121.91 96.60 122.22 97.04 122.54 97.48 C 130.58 108.64 119.40 107.44 119.40 107.44 C 97.90 103.02 89.29 92.05 85.84 83.84 C 82.84 84.81 83.56 87.14 83.56 87.14 C 83.56 87.14 82.98 113.27 129.89 120.73 C 129.89 120.73 144.33 121.93 133.94 110.78 Z" fill="#61a7d9" fill-opacity="0.36" fill-rule="nonzero" group-id="1,4,10" node-id="51" stroke="none" target-height="38.089996" target-width="61.48999" target-x="82.841" target-y="83.841"></path></g></g><path d="M 202.30 165.91 C 202.30 165.91 179.05 166.53 175.67 185.19 C 172.32 203.70 203.59 183.04 222.83 210.79 C 234.88 228.17 240.27 163.21 202.30 165.91 Z" fill="#a3d9ff" fill-rule="nonzero" group-id="1" id="Shape" node-id="20" stroke="none" target-height="64.951996" target-width="67.94801" target-x="172.32199" target-y="163.214"></path><g node-id="64"><g node-id="70"><path d="M 218.88 170.22 C 227.17 178.00 228.21 191.80 219.21 191.80 C 216.42 191.80 213.64 191.26 210.92 188.76 C 208.98 186.98 207.08 180.31 205.24 180.18 C 201.85 179.92 198.69 186.25 195.91 187.48 C 189.61 190.24 185.28 188.90 184.91 182.75 C 184.22 171.25 196.70 166.90 198.72 166.28 C 192.06 167.31 178.22 171.12 175.67 185.18 C 172.32 203.69 203.59 183.04 222.83 210.79 C 232.70 225.02 238.09 184.06 218.88 170.22 Z" fill="#61a7d9" fill-opacity="0.36" fill-rule="nonzero" group-id="1,5,11" node-id="58" stroke="none" target-height="58.739" target-width="65.769" target-x="172.323" target-y="166.279"></path></g></g><path d="M 49.89 42.71 C 49.89 45.87 47.33 48.44 44.17 48.44 C 41.00 48.44 38.44 45.87 38.44 42.71 C 38.44 39.55 41.00 36.99 44.17 36.99 C 47.33 36.99 49.89 39.55 49.89 42.71 Z" fill="#6e6e96" fill-rule="nonzero" group-id="1" id="Oval" node-id="24" stroke="none" target-height="11.452007" target-width="11.451996" target-x="38.440002" target-y="36.986"></path><path d="M 131.77 168.15 C 134.29 172.29 133.23 174.49 131.08 175.80 C 128.92 177.11 126.48 177.04 123.97 172.90 C 121.44 168.76 119.46 161.56 121.61 160.25 C 123.77 158.94 129.25 164.01 131.77 168.15 Z" fill="#61a7d9" fill-rule="nonzero" group-id="1" id="Shape" node-id="25" stroke="none" target-height="18.171997" target-width="14.834" target-x="119.459" target-y="158.939"></path><g node-id="65"><path d="M 152.33 138.84 C 153.82 141.29 153.35 142.50 152.26 143.16 C 151.17 143.82 149.88 143.69 148.38 141.24 C 146.89 138.79 145.57 134.62 146.66 133.96 C 147.74 133.29 150.84 136.39 152.33 138.84 Z" fill="#61a7d9" fill-opacity="0.51" fill-rule="nonzero" group-id="1,6" id="Shape" node-id="27" stroke="none" target-height="10.530991" target-width="8.254013" target-x="145.566" target-y="133.292"></path></g><g node-id="66"><path d="M 217.62 40.78 C 219.76 42.16 219.40 44.00 218.23 45.81 C 217.06 47.62 215.53 48.71 213.39 47.34 C 211.25 45.96 209.02 42.44 210.19 40.63 C 211.35 38.82 215.47 39.40 217.62 40.78 Z" fill="#61a7d9" fill-opacity="0.31" fill-rule="nonzero" group-id="1,7" id="Shape" node-id="29" stroke="none" target-height="9.892002" target-width="10.736008" target-x="209.021" target-y="38.822"></path></g><g node-id="67"><path d="M 233.93 93.93 C 235.42 96.38 234.94 97.59 233.85 98.25 C 232.77 98.91 231.47 98.78 229.98 96.33 C 228.49 93.88 227.16 89.71 228.25 89.05 C 229.34 88.38 232.43 91.47 233.93 93.93 Z" fill="#61a7d9" fill-opacity="0.51" fill-rule="nonzero" group-id="1,8" id="Shape" node-id="31" stroke="none" target-height="10.532005" target-width="8.253998" target-x="227.164" target-y="88.381"></path></g><path d="M 87.83 127.00 C 89.23 129.31 88.34 130.73 86.75 131.69 C 85.17 132.66 83.50 132.81 82.09 130.49 C 80.68 128.18 79.87 123.96 81.46 123.00 C 83.04 122.03 86.42 124.68 87.83 127.00 Z" fill="#61a7d9" fill-opacity="0.51" fill-rule="nonzero" group-id="1,9" id="Shape" node-id="33" stroke="none" target-height="10.776001" target-width="9.3619995" target-x="79.873" target-y="122.032"></path></g></svg>