<?xml version="1.0" standalone="no"?><!DOCTYPE svg PUBLIC "-//W3C//DTD SVG 1.1//EN" "http://www.w3.org/Graphics/SVG/1.1/DTD/svg11.dtd"><svg t="1765771724045" class="icon" viewBox="0 0 1024 1024" version="1.1" xmlns="http://www.w3.org/2000/svg" p-id="4656" xmlns:xlink="http://www.w3.org/1999/xlink" width="200" height="200"><path d="M0 0h1024v1024H0z" fill="#FFFFFF" fill-opacity=".01" p-id="4657"></path><path d="M932.584727 140.8c25.227636 0 45.707636 21.829818 45.707637 48.779636 0 26.903273-20.48 48.733091-45.707637 48.733091h-45.707636v633.949091c0 77.405091-56.599273 141.498182-129.117091 146.013091l-8.052364 0.232727H292.584727c-75.776 0-137.169455-65.489455-137.169454-146.292363V238.312727h-45.707637c-25.227636 0-45.707636-21.829818-45.707636-48.733091 0-26.949818 20.48-48.779636 45.707636-48.779636h822.877091z m-137.169454 89.693091H246.877091v633.949091c0 24.669091 17.314909 45.474909 40.354909 48.407273l5.352727 0.325818h457.122909c25.274182 0 45.707636-21.876364 45.707637-48.779637V230.493091z m-354.397091 156.858182a32.581818 32.581818 0 0 1 32.581818 32.581818v318.836364a32.581818 32.581818 0 0 1-32.581818 32.581818H416.581818a32.581818 32.581818 0 0 1-32.581818-32.581818v-318.836364a32.581818 32.581818 0 0 1 32.581818-32.581818h24.436364z m192-0.279273a32.581818 32.581818 0 0 1 32.581818 32.581818v318.836364a32.581818 32.581818 0 0 1-32.581818 32.581818h-24.436364a32.581818 32.581818 0 0 1-32.581818-32.581818v-318.836364a32.581818 32.581818 0 0 1 32.581818-32.581818h24.436364zM597.317818 0c23.598545 0 42.682182 20.014545 42.682182 44.823273 0 24.715636-19.083636 44.776727-42.682182 44.776727H426.682182c-23.598545 0-42.682182-20.014545-42.682182-44.823273 0-24.715636 19.083636-44.776727 42.682182-44.776727h170.635636z" fill="#B5B5B5" p-id="4658"></path></svg>